<?xml version="1.0" encoding="UTF-8" ?>
<!DOCTYPE svg PUBLIC "-//W3C//DTD SVG 1.1//EN" "http://www.w3.org/Graphics/SVG/1.1/DTD/svg11.dtd">
<svg width="1000pt" height="608pt" viewBox="0 0 1000 608" version="1.1" xmlns="http://www.w3.org/2000/svg">
<g id="#0f0b19ff">
<path fill="#0f0b19" stroke="#0f0b19" stroke-width="0.09375" opacity="1.00" d=" M 0.00 0.00 L 1000.00 0.00 L 1000.00 123.28 C 843.67 123.30 687.34 123.29 531.01 123.29 C 521.39 123.43 511.75 123.04 502.14 123.43 C 501.84 124.57 501.69 125.73 501.72 126.91 C 501.71 159.37 501.82 191.83 501.65 224.30 C 506.25 225.53 510.98 226.59 515.20 228.90 C 524.76 233.96 531.99 243.16 534.64 253.66 C 536.71 262.48 535.85 271.87 532.24 280.18 C 536.64 281.64 541.29 282.43 545.55 284.30 C 547.95 294.05 546.73 305.86 539.16 313.14 C 534.89 317.58 528.75 319.11 523.00 320.61 C 523.81 335.16 525.87 349.60 527.85 364.03 C 528.25 367.71 530.20 370.90 531.35 374.36 C 532.88 378.87 531.63 383.86 533.45 388.32 C 538.92 402.86 543.82 417.67 546.74 432.96 C 550.95 453.36 551.25 474.39 549.55 495.10 C 548.36 507.46 545.81 519.75 541.20 531.32 C 538.68 537.66 534.77 543.41 532.95 550.04 C 530.48 558.49 531.61 567.41 532.27 576.04 C 533.09 586.78 535.05 597.38 536.81 608.00 L 531.31 608.00 C 529.05 595.42 527.67 582.68 526.63 569.95 C 526.51 561.48 525.12 552.52 528.78 544.55 C 531.34 539.02 534.24 533.62 536.03 527.77 C 543.63 503.95 544.16 478.65 543.29 453.88 L 542.74 453.15 C 542.75 446.73 541.81 440.37 540.88 434.03 C 538.97 419.83 534.88 406.07 530.02 392.64 C 529.75 392.64 529.21 392.65 528.94 392.65 C 527.55 395.03 526.09 397.37 524.67 399.72 C 526.88 406.99 528.93 414.43 529.47 422.03 C 529.95 427.87 527.55 433.43 524.13 438.03 C 524.78 443.29 525.37 448.71 524.34 453.97 C 522.51 460.65 518.19 466.34 513.26 471.08 C 521.30 477.88 527.38 487.96 526.72 498.78 C 524.81 494.75 523.95 490.26 521.54 486.48 C 518.51 481.48 514.02 477.54 509.05 474.54 C 506.13 476.49 503.02 478.14 499.81 479.55 C 500.35 480.85 501.03 482.08 501.83 483.25 C 499.81 481.62 497.39 480.62 494.94 479.86 C 496.03 479.30 497.13 478.76 498.22 478.20 C 504.03 473.39 510.44 469.03 514.54 462.53 C 520.56 453.62 522.67 440.88 516.31 431.60 C 512.10 425.59 507.82 419.58 503.03 414.01 C 498.31 408.61 490.48 408.82 483.98 409.74 C 465.76 412.53 449.65 422.03 433.74 430.75 C 429.04 433.43 423.65 434.29 418.36 434.93 C 418.50 434.56 418.64 434.19 418.79 433.83 C 428.41 433.22 435.87 426.66 443.63 421.73 C 458.32 412.12 475.32 405.52 492.96 404.62 C 498.93 404.14 504.35 407.46 508.02 411.94 C 513.12 417.90 517.49 424.53 521.08 431.51 C 521.50 431.55 522.34 431.62 522.76 431.65 C 526.08 425.43 524.51 418.08 523.15 411.55 C 521.42 404.81 520.84 397.37 516.24 391.80 C 509.95 383.82 503.67 375.81 496.88 368.26 C 492.12 363.21 484.55 362.57 478.07 363.58 C 464.01 366.26 450.75 372.19 438.61 379.65 C 425.69 387.74 413.55 397.09 402.34 407.41 C 397.14 411.95 390.11 414.24 385.96 419.96 C 381.68 425.65 381.55 433.31 382.85 440.03 C 384.78 447.44 389.13 453.89 392.70 460.58 C 397.01 467.97 399.47 476.21 402.74 484.07 C 406.76 493.50 411.76 502.47 417.04 511.24 C 420.44 516.90 423.73 522.72 425.48 529.13 C 431.96 554.87 432.20 581.62 431.57 608.00 L 425.22 608.00 C 425.96 584.66 426.92 560.95 421.87 537.99 C 419.11 524.03 409.65 512.95 403.55 500.43 C 398.51 491.03 395.12 480.91 391.01 471.10 C 387.46 463.20 381.88 456.31 379.15 448.02 C 377.04 442.77 377.96 436.50 374.06 431.99 C 363.04 417.88 364.84 396.13 377.33 383.52 C 377.55 377.11 378.52 370.53 381.70 364.86 C 385.32 358.37 390.47 352.93 394.87 346.98 C 398.61 341.93 401.47 336.31 404.57 330.86 C 410.86 319.75 417.15 308.65 423.50 297.57 C 426.22 292.70 430.81 289.15 435.88 286.95 C 444.07 283.60 452.34 280.44 460.52 277.08 C 456.15 265.04 457.75 250.82 465.50 240.49 C 471.55 231.84 481.31 226.32 491.63 224.59 C 491.71 190.84 491.67 157.09 491.64 123.35 C 327.76 123.22 163.88 123.33 0.00 123.29 L 0.00 0.00 M 495.00 123.77 C 494.44 125.25 494.88 125.63 496.33 124.91 C 496.86 123.45 496.41 123.07 495.00 123.77 M 493.96 129.47 C 497.08 130.72 499.45 126.89 498.91 124.13 C 496.96 125.62 495.24 127.38 493.96 129.47 M 494.00 134.61 C 497.10 135.34 499.96 131.67 498.34 128.83 C 496.68 130.59 495.16 132.49 494.00 134.61 M 494.18 139.29 C 496.85 140.91 500.05 136.43 498.33 133.97 C 496.77 135.60 495.18 137.24 494.18 139.29 M 494.68 142.82 C 494.64 143.67 494.60 144.52 494.57 145.37 L 497.67 145.10 C 495.67 145.91 494.67 147.77 494.25 149.71 C 494.77 149.68 495.79 149.61 496.31 149.58 C 497.71 148.04 498.91 146.32 499.73 144.39 C 498.63 144.55 496.43 144.85 495.33 145.00 C 497.75 143.93 499.62 141.67 498.45 139.00 C 497.18 140.26 495.93 141.53 494.68 142.82 M 494.20 154.86 C 497.16 154.76 499.73 151.69 498.51 148.74 C 496.72 150.48 494.58 152.20 494.20 154.86 M 497.69 154.41 C 496.66 155.46 495.65 156.50 494.64 157.55 C 494.61 158.03 494.55 159.00 494.52 159.49 C 495.28 159.94 496.04 160.41 496.81 160.88 C 494.57 161.10 494.81 163.27 494.28 164.74 C 494.77 164.70 495.74 164.60 496.23 164.56 C 497.55 163.06 498.78 161.46 499.60 159.63 C 498.79 159.15 497.99 158.67 497.20 158.19 C 498.23 157.08 499.04 155.78 499.74 154.45 C 499.23 154.44 498.20 154.42 497.69 154.41 M 498.64 163.90 C 496.63 165.39 494.10 167.11 494.38 170.04 C 495.13 169.55 496.63 168.56 497.38 168.07 L 498.67 169.11 C 496.90 169.79 495.56 171.28 494.73 172.94 L 494.28 172.19 C 494.32 173.50 493.95 175.05 495.01 176.09 L 495.41 176.69 L 494.63 177.27 C 494.61 177.81 494.57 178.89 494.55 179.43 C 495.26 179.90 495.98 180.38 496.69 180.87 L 494.35 182.61 C 493.98 183.85 494.43 184.96 495.42 185.76 L 495.22 186.84 C 495.07 187.65 494.79 189.28 494.65 190.10 C 496.45 188.69 498.10 187.09 499.36 185.16 L 500.03 185.81 C 499.52 184.79 498.90 183.83 498.18 182.95 C 498.82 181.19 499.61 179.50 500.58 177.90 C 499.99 178.00 498.80 178.20 498.21 178.30 C 498.30 176.88 501.18 173.38 497.75 173.30 C 498.92 171.84 501.12 169.12 498.13 168.09 C 498.66 166.94 499.22 165.81 499.77 164.67 C 499.48 164.47 498.92 164.09 498.64 163.90 M 496.89 189.63 C 495.99 190.82 495.07 191.99 494.19 193.18 C 495.05 193.75 495.92 194.32 496.80 194.89 C 496.08 195.78 494.65 197.55 493.94 198.44 C 496.76 199.77 498.17 196.50 499.72 194.84 C 498.54 194.29 497.38 193.74 496.23 193.16 C 498.61 193.04 498.55 190.65 499.24 189.10 C 498.65 189.23 497.48 189.50 496.89 189.63 M 496.78 199.75 C 495.82 200.48 495.12 201.39 494.70 202.48 L 494.42 202.25 C 494.23 203.48 494.23 204.72 494.44 205.96 C 494.02 210.87 494.05 215.83 494.28 220.74 L 495.52 220.49 C 495.20 221.36 494.57 223.09 494.26 223.96 C 494.72 223.80 495.63 223.49 496.08 223.34 C 497.14 223.56 498.20 223.79 499.27 224.02 C 499.04 222.07 499.86 220.20 499.71 218.28 C 499.12 218.15 497.93 217.89 497.33 217.76 C 497.74 217.07 498.54 215.69 498.95 215.00 L 499.20 215.89 C 499.29 215.33 499.46 214.20 499.55 213.64 C 499.00 213.30 497.90 212.62 497.34 212.28 L 498.74 211.24 L 498.76 209.97 L 499.08 211.05 C 499.20 210.47 499.45 209.31 499.57 208.74 C 498.98 208.39 497.79 207.71 497.20 207.37 L 499.23 206.06 L 499.13 205.41 L 499.53 205.65 C 499.56 205.09 499.61 203.96 499.64 203.40 C 499.16 203.12 498.21 202.57 497.73 202.30 C 498.61 201.24 499.07 199.94 499.13 198.37 C 498.54 198.72 497.36 199.40 496.78 199.75 M 477.42 231.59 C 475.29 233.03 472.82 234.43 471.93 237.02 C 475.01 235.45 477.91 233.54 481.06 232.10 C 484.49 230.62 488.08 229.57 491.72 228.73 C 498.96 227.78 506.31 229.11 512.93 232.12 C 516.07 233.56 518.98 235.45 522.06 237.01 C 520.22 232.91 515.63 231.13 511.94 229.07 C 500.92 224.49 487.57 225.09 477.42 231.59 M 473.74 248.61 C 469.13 255.52 468.30 264.54 470.85 272.36 C 471.37 272.31 472.42 272.23 472.94 272.18 C 475.33 264.76 478.91 256.93 486.09 253.04 C 493.29 249.13 502.47 249.59 509.49 253.68 C 516.66 258.08 520.22 266.61 520.72 274.75 C 521.09 274.68 521.85 274.53 522.23 274.46 C 524.30 268.91 525.41 262.81 523.76 256.99 C 520.92 244.17 508.00 234.74 494.95 235.78 C 486.49 236.67 478.15 241.19 473.74 248.61 M 479.28 269.50 C 487.90 266.99 496.67 269.40 504.91 272.09 C 508.25 273.09 511.62 274.02 514.90 275.25 C 515.28 275.27 516.06 275.33 516.45 275.36 C 515.93 267.84 512.33 259.96 505.19 256.65 C 500.88 255.30 496.26 254.89 491.82 255.77 C 485.41 257.44 480.83 263.24 479.28 269.50 M 444.23 289.42 C 438.30 291.80 432.53 295.28 428.99 300.76 C 424.98 306.96 421.70 313.60 418.00 319.98 C 410.51 332.99 404.05 346.76 394.20 358.23 C 389.60 363.58 385.38 369.72 384.55 376.91 C 396.73 369.73 407.12 359.85 417.28 350.09 C 429.20 339.26 440.41 327.13 454.90 319.67 C 457.30 318.74 459.72 317.88 462.19 317.14 C 466.41 316.11 470.81 316.48 475.10 316.77 C 478.10 317.52 480.83 319.38 483.91 319.67 C 485.78 318.60 487.45 317.21 489.20 315.96 C 488.44 314.32 487.63 312.71 486.79 311.12 C 486.75 310.66 486.68 309.75 486.65 309.29 C 488.22 311.54 490.47 313.09 492.95 314.21 C 495.59 314.84 498.21 315.52 500.83 316.24 C 502.22 316.46 503.62 316.66 505.03 316.92 C 512.25 318.13 519.83 317.98 526.90 315.95 C 532.26 314.22 537.13 310.85 539.92 305.87 C 540.92 303.35 541.62 300.72 542.26 298.09 C 542.32 296.01 542.32 293.93 542.29 291.86 C 541.97 290.82 541.66 289.78 541.37 288.74 C 533.66 286.55 526.08 283.90 518.29 281.99 C 518.18 284.70 517.93 287.45 518.54 290.12 C 519.66 292.63 521.71 294.51 523.72 296.31 C 524.75 297.13 525.78 297.99 526.80 298.84 C 523.41 297.13 519.54 295.98 516.98 293.02 C 513.79 289.72 513.41 284.82 513.78 280.48 C 509.07 278.97 504.31 277.63 499.60 276.17 C 493.07 273.71 485.80 273.70 479.02 274.90 C 467.31 279.44 455.86 284.66 444.23 289.42 M 487.11 321.98 C 489.44 323.74 491.72 325.92 494.81 326.10 C 499.25 326.49 503.64 327.29 508.07 327.85 C 504.39 328.38 500.67 328.32 496.97 328.47 C 499.11 331.99 502.87 334.09 505.50 337.22 C 511.87 343.52 516.87 350.99 522.49 357.93 C 522.79 351.60 521.39 345.35 520.84 339.09 C 520.46 335.70 520.46 332.28 520.17 328.89 C 519.60 326.33 519.57 323.70 519.50 321.09 C 511.28 320.83 503.02 320.55 495.02 318.41 C 491.75 317.18 489.41 320.20 487.11 321.98 M 437.77 338.60 C 423.23 351.05 409.66 364.63 394.64 376.53 C 387.31 382.75 378.57 388.26 374.68 397.47 C 370.92 406.06 372.07 415.94 375.89 424.29 C 376.28 424.47 377.04 424.82 377.43 424.99 C 377.99 423.34 378.54 421.69 379.09 420.05 C 382.63 412.03 390.88 408.20 397.99 404.01 C 406.30 398.87 413.03 391.66 420.90 385.93 C 438.40 372.80 458.16 361.76 479.89 357.81 C 484.75 357.28 489.73 358.01 494.24 359.89 C 498.47 361.66 501.55 365.19 504.54 368.53 C 510.67 375.87 516.56 383.42 522.01 391.28 L 523.16 391.75 C 527.95 386.08 527.19 377.94 524.29 371.59 C 515.12 355.42 502.10 341.80 488.11 329.71 C 482.72 324.78 475.47 321.53 468.06 322.33 C 456.11 323.17 446.47 331.11 437.77 338.60 Z" />
<path fill="#0f0b19" stroke="#0f0b19" stroke-width="0.09375" opacity="1.00" d=" M 485.92 463.89 C 493.25 460.95 498.94 455.34 504.76 450.20 C 504.55 450.62 504.12 451.46 503.90 451.88 C 502.16 455.30 500.17 458.66 497.36 461.34 C 498.66 462.20 501.26 463.92 502.56 464.77 C 500.77 464.45 497.18 463.80 495.39 463.47 C 493.11 464.94 490.88 466.49 488.42 467.65 C 488.66 470.52 488.64 473.40 488.45 476.28 C 490.51 476.45 496.17 476.30 494.20 479.64 C 492.00 479.27 489.69 478.29 487.52 479.29 C 487.20 480.70 486.86 482.10 486.46 483.50 C 486.31 479.58 486.21 475.66 485.35 471.82 C 485.08 471.18 484.53 469.91 484.26 469.27 C 478.10 469.39 471.86 469.92 465.78 468.70 C 466.36 468.60 467.50 468.39 468.07 468.29 C 474.05 466.99 480.26 466.42 485.92 463.89 Z" />
</g>
<g id="#c54d59ff">
<path fill="#c54d59" stroke="#c54d59" stroke-width="0.09375" opacity="1.00" d=" M 0.00 123.29 C 163.88 123.33 327.76 123.22 491.64 123.35 C 491.67 157.09 491.71 190.84 491.63 224.59 C 481.31 226.32 471.55 231.84 465.50 240.49 C 457.75 250.82 456.15 265.04 460.52 277.08 C 452.34 280.44 444.07 283.60 435.88 286.95 C 430.81 289.15 426.22 292.70 423.50 297.57 C 417.15 308.65 410.86 319.75 404.57 330.86 C 401.47 336.31 398.61 341.93 394.87 346.98 C 390.47 352.93 385.32 358.37 381.70 364.86 C 378.52 370.53 377.55 377.11 377.33 383.52 C 364.84 396.13 363.04 417.88 374.06 431.99 C 377.96 436.50 377.04 442.77 379.15 448.02 C 381.88 456.31 387.46 463.20 391.01 471.10 C 395.12 480.91 398.51 491.03 403.55 500.43 C 409.65 512.95 419.11 524.03 421.87 537.99 C 426.92 560.95 425.96 584.66 425.22 608.00 L 0.00 608.00 L 0.00 123.29 Z" />
<path fill="#c54d59" stroke="#c54d59" stroke-width="0.09375" opacity="1.00" d=" M 502.14 123.43 C 511.75 123.04 521.39 123.43 531.01 123.29 C 687.34 123.29 843.67 123.30 1000.00 123.28 L 1000.00 608.00 L 536.81 608.00 C 535.05 597.38 533.09 586.78 532.27 576.04 C 531.61 567.41 530.48 558.49 532.95 550.04 C 534.77 543.41 538.68 537.66 541.20 531.32 C 545.81 519.75 548.36 507.46 549.55 495.10 C 551.25 474.39 550.95 453.36 546.74 432.96 C 543.82 417.67 538.92 402.86 533.45 388.32 C 531.63 383.86 532.88 378.87 531.35 374.36 C 530.20 370.90 528.25 367.71 527.85 364.03 C 525.87 349.60 523.81 335.16 523.00 320.61 C 528.75 319.11 534.89 317.58 539.16 313.14 C 546.73 305.86 547.95 294.05 545.55 284.30 C 541.29 282.43 536.64 281.64 532.24 280.18 C 535.85 271.87 536.71 262.48 534.64 253.66 C 531.99 243.16 524.76 233.96 515.20 228.90 C 510.98 226.59 506.25 225.53 501.65 224.30 C 501.82 191.83 501.71 159.37 501.72 126.91 C 501.69 125.73 501.84 124.57 502.14 123.43 Z" />
<path fill="#c54d59" stroke="#c54d59" stroke-width="0.09375" opacity="1.00" d=" M 498.64 163.90 C 498.92 164.09 499.48 164.47 499.77 164.67 C 499.22 165.81 498.66 166.94 498.13 168.09 C 501.12 169.12 498.92 171.84 497.75 173.30 C 501.18 173.38 498.30 176.88 498.21 178.30 C 498.80 178.20 499.99 178.00 500.58 177.90 C 499.61 179.50 498.82 181.19 498.18 182.95 C 498.90 183.83 499.52 184.79 500.03 185.81 L 499.36 185.16 C 499.07 184.88 498.49 184.31 498.20 184.03 C 497.19 184.95 496.17 185.86 495.22 186.84 L 495.42 185.76 C 494.43 184.96 493.98 183.85 494.35 182.61 C 494.87 183.16 495.44 183.66 496.06 184.11 C 496.73 183.45 498.06 182.14 498.73 181.49 C 498.08 180.40 497.43 179.32 496.74 178.28 C 497.81 176.99 498.65 175.55 499.29 174.00 C 497.96 174.85 496.67 175.75 495.41 176.69 L 495.01 176.09 C 493.95 175.05 494.32 173.50 494.28 172.19 L 494.73 172.94 C 494.86 173.16 495.14 173.60 495.27 173.82 C 497.22 173.88 498.44 171.67 499.10 170.08 C 499.00 169.84 498.78 169.35 498.67 169.11 L 497.38 168.07 C 498.30 166.86 498.61 165.39 498.64 163.90 Z" />
<path fill="#c54d59" stroke="#c54d59" stroke-width="0.09375" opacity="1.00" d=" M 494.42 202.25 L 494.70 202.48 C 494.82 202.77 495.07 203.35 495.19 203.64 C 496.07 203.26 496.88 202.74 497.73 202.30 C 498.21 202.57 499.16 203.12 499.64 203.40 C 499.61 203.96 499.56 205.09 499.53 205.65 L 499.13 205.41 C 498.99 205.11 498.71 204.53 498.57 204.24 C 496.88 204.11 495.63 205.75 495.00 207.12 C 495.17 207.97 495.40 208.80 495.67 209.62 C 496.05 209.06 496.82 207.93 497.20 207.37 C 497.79 207.71 498.98 208.39 499.57 208.74 C 499.45 209.31 499.20 210.47 499.08 211.05 L 498.76 209.97 C 498.74 209.63 498.69 208.95 498.67 208.61 C 497.54 209.50 496.41 210.39 495.29 211.28 C 495.10 212.40 494.90 213.53 494.72 214.66 C 495.56 213.83 496.44 213.04 497.34 212.28 C 497.90 212.62 499.00 213.30 499.55 213.64 C 499.46 214.20 499.29 215.33 499.20 215.89 L 498.95 215.00 C 498.86 214.69 498.69 214.06 498.61 213.75 C 497.39 214.44 496.14 215.08 494.87 215.67 C 494.78 217.36 495.22 219.50 497.20 217.93 L 497.33 217.76 C 497.93 217.89 499.12 218.15 499.71 218.28 C 499.86 220.20 499.04 222.07 499.27 224.02 C 498.20 223.79 497.14 223.56 496.08 223.34 C 497.14 222.23 499.56 221.21 498.63 219.36 C 497.47 218.80 496.49 220.09 495.52 220.49 L 494.28 220.74 C 494.05 215.83 494.02 210.87 494.44 205.96 C 494.23 204.72 494.23 203.48 494.42 202.25 Z" />
<path fill="#c54d59" stroke="#c54d59" stroke-width="0.09375" opacity="1.00" d=" M 473.74 248.61 C 478.15 241.19 486.49 236.67 494.95 235.78 C 508.00 234.74 520.92 244.17 523.76 256.99 C 525.41 262.81 524.30 268.91 522.23 274.46 C 521.85 274.53 521.09 274.68 520.72 274.75 C 520.22 266.61 516.66 258.08 509.49 253.68 C 502.47 249.59 493.29 249.13 486.09 253.04 C 478.91 256.93 475.33 264.76 472.94 272.18 C 472.42 272.23 471.37 272.31 470.85 272.36 C 468.30 264.54 469.13 255.52 473.74 248.61 Z" />
</g>
<g id="#ffffffff">
<path fill="#ffffff" stroke="#ffffff" stroke-width="0.09375" opacity="1.00" d=" M 495.00 123.77 C 496.41 123.07 496.86 123.45 496.33 124.91 C 494.88 125.63 494.44 125.25 495.00 123.77 Z" />
<path fill="#ffffff" stroke="#ffffff" stroke-width="0.09375" opacity="1.00" d=" M 493.96 129.47 C 495.24 127.38 496.96 125.62 498.91 124.13 C 499.45 126.89 497.08 130.72 493.96 129.47 Z" />
<path fill="#ffffff" stroke="#ffffff" stroke-width="0.09375" opacity="1.00" d=" M 494.00 134.61 C 495.16 132.49 496.68 130.59 498.34 128.83 C 499.96 131.67 497.10 135.34 494.00 134.61 Z" />
<path fill="#ffffff" stroke="#ffffff" stroke-width="0.09375" opacity="1.00" d=" M 494.18 139.29 C 495.18 137.24 496.77 135.60 498.33 133.97 C 500.05 136.43 496.85 140.91 494.18 139.29 Z" />
<path fill="#ffffff" stroke="#ffffff" stroke-width="0.09375" opacity="1.00" d=" M 494.68 142.82 C 495.93 141.53 497.18 140.26 498.45 139.00 C 499.62 141.67 497.75 143.93 495.33 145.00 C 496.43 144.85 498.63 144.55 499.73 144.39 C 498.91 146.32 497.71 148.04 496.31 149.58 C 495.79 149.61 494.77 149.68 494.25 149.71 C 494.67 147.77 495.67 145.91 497.67 145.10 L 494.57 145.37 C 494.60 144.52 494.64 143.67 494.68 142.82 Z" />
<path fill="#ffffff" stroke="#ffffff" stroke-width="0.09375" opacity="1.00" d=" M 494.20 154.86 C 494.58 152.20 496.72 150.48 498.51 148.74 C 499.73 151.69 497.16 154.76 494.20 154.86 Z" />
<path fill="#ffffff" stroke="#ffffff" stroke-width="0.09375" opacity="1.00" d=" M 497.69 154.41 C 498.20 154.42 499.23 154.44 499.74 154.45 C 499.04 155.78 498.23 157.08 497.20 158.19 C 497.99 158.67 498.79 159.15 499.60 159.63 C 498.78 161.46 497.55 163.06 496.23 164.56 C 495.74 164.60 494.77 164.70 494.28 164.74 C 494.81 163.27 494.57 161.10 496.81 160.88 C 496.04 160.41 495.28 159.94 494.52 159.49 C 494.55 159.00 494.61 158.03 494.64 157.55 C 495.65 156.50 496.66 155.46 497.69 154.41 Z" />
<path fill="#ffffff" stroke="#ffffff" stroke-width="0.09375" opacity="1.00" d=" M 494.38 170.04 C 494.10 167.11 496.63 165.39 498.64 163.90 C 498.61 165.39 498.30 166.86 497.38 168.07 C 496.63 168.56 495.13 169.55 494.38 170.04 Z" />
<path fill="#ffffff" stroke="#ffffff" stroke-width="0.09375" opacity="1.00" d=" M 498.67 169.11 C 498.78 169.35 499.00 169.84 499.10 170.08 C 498.44 171.67 497.22 173.88 495.27 173.82 C 495.14 173.60 494.86 173.16 494.73 172.94 C 495.56 171.28 496.90 169.79 498.67 169.11 Z" />
<path fill="#ffffff" stroke="#ffffff" stroke-width="0.09375" opacity="1.00" d=" M 495.41 176.69 C 496.67 175.75 497.96 174.85 499.29 174.00 C 498.65 175.55 497.81 176.99 496.74 178.28 C 497.43 179.32 498.08 180.40 498.73 181.49 C 498.06 182.14 496.73 183.45 496.06 184.11 C 495.44 183.66 494.87 183.16 494.35 182.61 L 496.69 180.87 C 495.98 180.38 495.26 179.90 494.55 179.43 C 494.57 178.89 494.61 177.81 494.63 177.27 L 495.41 176.69 Z" />
<path fill="#ffffff" stroke="#ffffff" stroke-width="0.09375" opacity="1.00" d=" M 498.20 184.03 C 498.49 184.31 499.07 184.88 499.36 185.16 C 498.10 187.09 496.45 188.69 494.65 190.10 C 494.79 189.28 495.07 187.65 495.22 186.84 C 496.17 185.86 497.19 184.95 498.20 184.03 Z" />
<path fill="#ffffff" stroke="#ffffff" stroke-width="0.09375" opacity="1.00" d=" M 496.89 189.63 C 497.48 189.50 498.65 189.23 499.24 189.10 C 498.55 190.65 498.61 193.04 496.23 193.16 C 497.38 193.74 498.54 194.29 499.72 194.84 C 498.17 196.50 496.76 199.77 493.94 198.44 C 494.65 197.55 496.08 195.78 496.80 194.89 C 495.92 194.32 495.05 193.75 494.19 193.18 C 495.07 191.99 495.99 190.82 496.89 189.63 Z" />
<path fill="#ffffff" stroke="#ffffff" stroke-width="0.09375" opacity="1.00" d=" M 496.78 199.75 C 497.36 199.40 498.54 198.72 499.13 198.37 C 499.07 199.94 498.61 201.24 497.73 202.30 C 496.88 202.74 496.07 203.26 495.19 203.64 C 495.07 203.35 494.82 202.77 494.70 202.48 C 495.12 201.39 495.82 200.48 496.78 199.75 Z" />
<path fill="#ffffff" stroke="#ffffff" stroke-width="0.09375" opacity="1.00" d=" M 495.00 207.12 C 495.63 205.75 496.88 204.11 498.57 204.24 C 498.71 204.53 498.99 205.11 499.13 205.41 L 499.23 206.06 L 497.20 207.37 C 496.82 207.93 496.05 209.06 495.67 209.62 C 495.40 208.80 495.17 207.97 495.00 207.12 Z" />
<path fill="#ffffff" stroke="#ffffff" stroke-width="0.09375" opacity="1.00" d=" M 495.29 211.28 C 496.41 210.39 497.54 209.50 498.67 208.61 C 498.69 208.95 498.74 209.63 498.76 209.97 L 498.74 211.24 L 497.34 212.28 C 496.44 213.04 495.56 213.83 494.72 214.66 C 494.90 213.53 495.10 212.40 495.29 211.28 Z" />
<path fill="#ffffff" stroke="#ffffff" stroke-width="0.09375" opacity="1.00" d=" M 494.87 215.67 C 496.14 215.08 497.39 214.44 498.61 213.75 C 498.69 214.06 498.86 214.69 498.95 215.00 C 498.54 215.69 497.74 217.07 497.33 217.76 L 497.20 217.93 C 495.22 219.50 494.78 217.36 494.87 215.67 Z" />
<path fill="#ffffff" stroke="#ffffff" stroke-width="0.09375" opacity="1.00" d=" M 495.52 220.49 C 496.49 220.09 497.47 218.80 498.63 219.36 C 499.56 221.21 497.14 222.23 496.08 223.34 C 495.63 223.49 494.72 223.80 494.26 223.96 C 494.57 223.09 495.20 221.36 495.52 220.49 Z" />
<path fill="#ffffff" stroke="#ffffff" stroke-width="0.09375" opacity="1.00" d=" M 477.42 231.59 C 487.57 225.09 500.92 224.49 511.94 229.07 C 515.63 231.13 520.22 232.91 522.06 237.01 C 518.98 235.45 516.07 233.56 512.93 232.12 C 506.31 229.11 498.96 227.78 491.72 228.73 C 488.08 229.57 484.49 230.62 481.06 232.10 C 477.91 233.54 475.01 235.45 471.93 237.02 C 472.82 234.43 475.29 233.03 477.42 231.59 Z" />
<path fill="#ffffff" stroke="#ffffff" stroke-width="0.09375" opacity="1.00" d=" M 479.28 269.50 C 480.83 263.24 485.41 257.44 491.82 255.77 C 496.26 254.89 500.88 255.30 505.19 256.65 C 512.33 259.96 515.93 267.84 516.45 275.36 C 516.06 275.33 515.28 275.27 514.90 275.25 C 511.62 274.02 508.25 273.09 504.91 272.09 C 496.67 269.40 487.90 266.99 479.28 269.50 Z" />
<path fill="#ffffff" stroke="#ffffff" stroke-width="0.09375" opacity="1.00" d=" M 444.23 289.42 C 455.86 284.66 467.31 279.44 479.02 274.90 C 485.80 273.70 493.07 273.71 499.60 276.17 C 504.31 277.63 509.07 278.97 513.78 280.48 C 513.41 284.82 513.79 289.72 516.98 293.02 C 519.54 295.98 523.41 297.13 526.80 298.84 C 525.78 297.99 524.75 297.13 523.72 296.31 C 521.71 294.51 519.66 292.63 518.54 290.12 C 517.93 287.45 518.18 284.70 518.29 281.99 C 526.08 283.90 533.66 286.55 541.37 288.74 C 541.66 289.78 541.97 290.82 542.29 291.86 C 542.32 293.93 542.32 296.01 542.26 298.09 C 541.62 300.72 540.92 303.35 539.92 305.87 C 537.13 310.85 532.26 314.22 526.90 315.95 C 519.83 317.98 512.25 318.13 505.03 316.92 C 503.62 316.66 502.22 316.46 500.83 316.24 C 498.21 315.52 495.59 314.84 492.95 314.21 C 490.47 313.09 488.22 311.54 486.65 309.29 C 486.68 309.75 486.75 310.66 486.79 311.12 C 487.63 312.71 488.44 314.32 489.20 315.96 C 487.45 317.21 485.78 318.60 483.91 319.67 C 480.83 319.38 478.10 317.52 475.10 316.77 C 470.81 316.48 466.41 316.11 462.19 317.14 C 459.72 317.88 457.30 318.74 454.90 319.67 C 440.41 327.13 429.20 339.26 417.28 350.09 C 407.12 359.85 396.73 369.73 384.55 376.91 C 385.38 369.72 389.60 363.58 394.20 358.23 C 404.05 346.76 410.51 332.99 418.00 319.98 C 421.70 313.60 424.98 306.96 428.99 300.76 C 432.53 295.28 438.30 291.80 444.23 289.42 Z" />
<path fill="#ffffff" stroke="#ffffff" stroke-width="0.09375" opacity="1.00" d=" M 487.11 321.98 C 489.41 320.20 491.75 317.18 495.02 318.41 C 503.02 320.55 511.28 320.83 519.50 321.09 C 519.57 323.70 519.60 326.33 520.17 328.89 C 520.46 332.28 520.46 335.70 520.84 339.09 C 521.39 345.35 522.79 351.60 522.49 357.93 C 516.87 350.99 511.87 343.52 505.50 337.22 C 502.87 334.09 499.11 331.99 496.97 328.47 C 500.67 328.32 504.39 328.38 508.07 327.85 C 503.64 327.29 499.25 326.49 494.81 326.10 C 491.72 325.92 489.44 323.74 487.11 321.98 Z" />
<path fill="#ffffff" stroke="#ffffff" stroke-width="0.09375" opacity="1.00" d=" M 437.77 338.60 C 446.47 331.11 456.11 323.17 468.06 322.33 C 475.47 321.53 482.72 324.78 488.11 329.71 C 502.10 341.80 515.12 355.42 524.29 371.59 C 527.19 377.94 527.95 386.08 523.16 391.75 L 522.01 391.28 C 516.56 383.42 510.67 375.87 504.54 368.53 C 501.55 365.19 498.47 361.66 494.24 359.89 C 489.73 358.01 484.75 357.28 479.89 357.81 C 458.16 361.76 438.40 372.80 420.90 385.93 C 413.03 391.66 406.30 398.87 397.99 404.01 C 390.88 408.20 382.63 412.03 379.09 420.05 C 378.54 421.69 377.99 423.34 377.43 424.99 C 377.04 424.82 376.28 424.47 375.89 424.29 C 372.07 415.94 370.92 406.06 374.68 397.47 C 378.57 388.26 387.31 382.75 394.64 376.53 C 409.66 364.63 423.23 351.05 437.77 338.60 Z" />
<path fill="#ffffff" stroke="#ffffff" stroke-width="0.09375" opacity="1.00" d=" M 438.61 379.65 C 450.75 372.19 464.01 366.26 478.07 363.58 C 484.55 362.57 492.12 363.21 496.88 368.26 C 503.67 375.81 509.95 383.82 516.24 391.80 C 520.84 397.37 521.42 404.81 523.15 411.55 C 524.51 418.08 526.08 425.43 522.76 431.65 C 522.34 431.62 521.50 431.55 521.08 431.51 C 517.49 424.53 513.12 417.90 508.02 411.94 C 504.35 407.46 498.93 404.14 492.96 404.62 C 475.32 405.52 458.32 412.12 443.63 421.73 C 435.87 426.66 428.41 433.22 418.79 433.83 C 418.64 434.19 418.50 434.56 418.36 434.93 C 423.65 434.29 429.04 433.43 433.74 430.75 C 449.65 422.03 465.76 412.53 483.98 409.74 C 490.48 408.82 498.31 408.61 503.03 414.01 C 507.82 419.58 512.10 425.59 516.31 431.60 C 522.67 440.88 520.56 453.62 514.54 462.53 C 510.44 469.03 504.03 473.39 498.22 478.20 C 497.13 478.76 496.03 479.30 494.94 479.86 C 497.39 480.62 499.81 481.62 501.83 483.25 C 501.03 482.08 500.35 480.85 499.81 479.55 C 503.02 478.14 506.13 476.49 509.05 474.54 C 514.02 477.54 518.51 481.48 521.54 486.48 C 523.95 490.26 524.81 494.75 526.72 498.78 C 527.38 487.96 521.30 477.88 513.26 471.08 C 518.19 466.34 522.51 460.65 524.34 453.97 C 525.37 448.71 524.78 443.29 524.13 438.03 C 527.55 433.43 529.95 427.87 529.47 422.03 C 528.93 414.43 526.88 406.99 524.67 399.72 C 526.09 397.37 527.55 395.03 528.94 392.65 C 529.21 392.65 529.75 392.64 530.02 392.64 C 534.88 406.07 538.97 419.83 540.88 434.03 C 541.81 440.37 542.75 446.73 542.74 453.15 L 543.29 453.88 C 544.16 478.65 543.63 503.95 536.03 527.77 C 534.24 533.62 531.34 539.02 528.78 544.55 C 525.12 552.52 526.51 561.48 526.63 569.95 C 527.67 582.68 529.05 595.42 531.31 608.00 L 431.57 608.00 C 432.20 581.62 431.96 554.87 425.48 529.13 C 423.73 522.72 420.44 516.90 417.04 511.24 C 411.76 502.47 406.76 493.50 402.74 484.07 C 399.47 476.21 397.01 467.97 392.70 460.58 C 389.13 453.89 384.78 447.44 382.85 440.03 C 381.55 433.31 381.68 425.65 385.96 419.96 C 390.11 414.24 397.14 411.95 402.34 407.41 C 413.55 397.09 425.69 387.74 438.61 379.65 M 485.92 463.89 C 480.26 466.42 474.05 466.99 468.07 468.29 C 467.50 468.39 466.36 468.60 465.78 468.70 C 471.86 469.92 478.10 469.39 484.26 469.27 C 484.53 469.91 485.08 471.18 485.35 471.82 C 486.21 475.66 486.31 479.58 486.46 483.50 C 486.86 482.10 487.20 480.70 487.52 479.29 C 489.69 478.29 492.00 479.27 494.20 479.64 C 496.17 476.30 490.51 476.45 488.45 476.28 C 488.64 473.40 488.66 470.52 488.42 467.65 C 490.88 466.49 493.11 464.94 495.39 463.47 C 497.18 463.80 500.77 464.45 502.56 464.77 C 501.26 463.92 498.66 462.20 497.36 461.34 C 500.17 458.66 502.16 455.30 503.90 451.88 C 504.12 451.46 504.55 450.62 504.76 450.20 C 498.94 455.34 493.25 460.95 485.92 463.89 Z" />
</g>
</svg>
