<?xml version="1.0" encoding="UTF-8" ?>
<!DOCTYPE svg PUBLIC "-//W3C//DTD SVG 1.1//EN" "http://www.w3.org/Graphics/SVG/1.1/DTD/svg11.dtd">
<svg width="1000pt" height="608pt" viewBox="0 0 1000 608" version="1.1" xmlns="http://www.w3.org/2000/svg">
<g id="#c54d59ff">
<path fill="#c54d59" stroke="#c54d59" stroke-width="0.09375" opacity="1.00" d=" M 0.00 0.00 L 1000.00 0.00 L 1000.00 608.00 L 0.00 608.00 L 0.00 0.00 M 406.39 132.40 C 400.50 135.35 395.14 141.04 395.34 148.02 C 394.90 153.25 399.04 157.47 403.46 159.53 C 408.23 162.04 413.79 161.85 419.02 161.54 C 426.52 160.95 433.02 156.79 439.47 153.30 C 442.89 151.51 446.73 149.62 450.69 150.49 C 454.38 151.76 457.36 154.70 461.27 155.42 C 467.20 156.32 473.22 155.35 478.89 153.56 C 483.98 151.97 489.46 151.93 494.61 153.25 C 494.59 153.74 494.53 154.72 494.51 155.22 C 491.64 156.52 488.41 157.79 486.81 160.71 C 483.77 166.03 482.28 173.05 485.34 178.69 C 487.72 182.86 492.42 184.69 496.61 186.49 C 494.56 192.59 494.11 199.11 492.31 205.29 C 490.22 208.00 488.49 210.97 487.17 214.12 C 476.22 239.31 469.64 266.52 468.64 293.99 C 468.38 299.77 469.50 305.48 469.40 311.26 C 467.12 322.88 465.56 334.64 463.36 346.28 C 462.16 347.34 461.38 349.44 459.52 349.28 C 450.34 349.18 441.17 348.68 432.02 348.05 C 412.17 347.88 392.31 347.89 372.46 347.91 C 370.81 334.68 368.85 321.48 367.52 308.22 C 370.55 308.08 373.10 309.67 375.25 311.65 C 378.45 316.22 381.85 320.68 385.77 324.67 C 390.72 318.76 395.58 312.79 400.49 306.85 C 401.87 307.69 403.27 308.52 404.64 309.39 C 410.83 312.80 412.61 320.47 418.48 324.30 C 418.68 321.93 418.84 319.56 419.06 317.20 C 423.78 317.30 428.42 318.71 433.17 318.22 C 429.16 313.44 423.46 310.71 417.98 308.02 C 413.59 305.92 410.43 302.14 406.96 298.86 C 407.70 297.93 408.31 296.76 406.93 296.08 C 387.65 280.30 370.34 261.79 357.60 240.29 C 354.36 235.34 352.26 229.75 348.86 224.90 C 348.51 221.81 348.47 218.70 348.37 215.60 C 347.74 215.45 346.48 215.15 345.85 215.00 C 344.94 209.72 344.23 204.42 343.67 199.09 C 347.26 200.75 350.87 202.96 354.98 202.72 C 356.23 202.64 357.88 202.87 358.30 201.32 C 362.84 191.48 361.77 179.97 358.21 169.99 L 357.33 170.07 C 358.61 165.98 354.22 163.16 350.82 162.29 C 344.05 160.89 336.14 160.92 330.52 165.52 C 326.78 168.41 325.07 173.42 325.71 178.03 C 326.52 183.66 328.89 189.68 334.19 192.47 C 331.66 198.86 330.58 205.75 329.73 212.54 C 323.45 216.97 320.00 224.21 314.96 229.84 C 314.27 230.53 313.20 230.41 312.33 230.67 C 307.57 222.36 301.76 214.47 294.72 207.94 C 294.63 206.79 294.55 205.64 294.48 204.49 C 293.40 204.34 292.33 204.19 291.27 204.03 C 291.30 199.34 290.34 194.72 289.87 190.07 C 293.51 191.40 297.06 193.44 301.01 193.53 C 303.83 193.41 305.41 190.59 306.17 188.21 C 308.27 180.87 307.41 173.10 306.37 165.65 C 306.05 165.82 305.41 166.16 305.09 166.33 C 308.40 162.47 307.90 156.98 307.38 152.28 C 305.16 144.02 296.75 139.02 288.76 137.62 C 281.29 136.99 273.36 136.87 266.59 140.58 C 257.64 144.72 252.01 154.31 251.55 164.00 C 251.41 173.31 256.94 182.61 265.43 186.58 C 269.57 188.35 274.16 189.71 278.70 189.17 C 277.49 193.47 277.11 198.15 274.50 201.92 C 269.26 201.48 264.15 200.30 259.01 199.27 C 255.11 198.34 250.70 198.92 247.50 201.45 C 244.99 203.45 244.17 206.93 244.71 210.00 C 245.81 216.38 249.09 223.38 255.98 225.00 C 251.71 232.39 247.06 239.56 243.24 247.21 C 239.80 243.81 236.83 240.00 233.45 236.57 C 231.50 228.69 232.36 220.53 231.39 212.57 C 228.95 211.07 225.97 211.40 223.24 211.35 C 222.76 207.29 222.38 203.22 222.04 199.15 C 224.74 200.36 227.38 201.78 230.29 202.43 C 232.77 202.90 236.30 203.27 237.07 200.13 C 240.58 190.92 240.38 180.09 236.70 170.96 C 235.36 168.28 233.75 165.43 230.76 164.34 C 224.74 162.11 217.86 162.51 211.97 165.00 C 206.33 167.39 202.77 173.88 203.96 179.92 C 204.92 185.26 206.87 191.23 212.18 193.73 C 209.46 199.14 209.15 205.39 207.97 211.26 C 205.01 210.65 204.01 213.67 203.74 215.99 C 203.17 221.08 198.27 223.67 195.16 227.16 C 179.45 243.43 167.74 263.51 161.08 285.12 C 157.42 296.44 154.67 308.17 154.41 320.11 C 154.31 324.34 156.13 328.27 157.99 331.96 C 158.62 332.86 158.92 334.26 160.11 334.60 C 156.37 343.06 148.25 347.82 141.31 353.34 C 141.30 354.49 141.27 355.65 141.23 356.81 C 143.38 357.50 145.53 358.54 147.84 358.51 C 153.66 358.02 157.88 352.64 163.70 352.40 C 166.41 354.01 168.65 356.50 171.90 357.06 C 170.76 352.97 168.63 349.18 167.86 344.98 C 167.82 342.27 168.69 339.65 169.28 337.04 C 174.07 333.33 179.77 329.62 181.38 323.39 C 182.79 318.18 183.41 312.72 185.77 307.80 C 186.02 309.13 186.26 310.46 186.53 311.79 C 184.84 318.99 186.03 326.42 185.40 333.72 C 184.03 349.06 183.42 364.49 180.72 379.69 C 180.37 379.65 179.66 379.59 179.31 379.56 C 175.69 382.87 171.89 385.97 168.13 389.11 C 162.80 393.50 158.78 399.17 154.62 404.61 C 149.21 412.51 144.26 421.04 142.49 430.57 C 138.76 445.64 142.70 461.60 150.06 474.95 C 160.32 493.93 177.11 508.50 195.18 519.83 C 203.30 524.92 211.51 529.91 220.33 533.70 C 232.84 540.24 246.06 545.34 259.53 549.52 C 268.63 552.81 277.96 555.41 287.34 557.79 C 298.90 561.36 310.94 562.89 322.79 565.16 C 350.22 570.43 378.14 572.23 405.98 573.86 C 419.31 573.78 432.65 574.20 445.97 573.70 C 457.42 572.48 468.95 573.50 480.41 572.47 C 506.31 571.02 532.17 568.80 557.94 565.85 C 577.10 563.09 596.40 561.20 615.42 557.47 C 667.83 547.79 720.01 535.37 769.64 515.66 C 779.25 512.47 788.18 507.61 797.34 503.37 C 806.58 498.84 815.97 494.40 824.31 488.30 C 831.26 483.34 838.77 478.96 844.54 472.55 C 850.69 465.93 856.57 458.50 858.99 449.65 C 866.77 447.88 874.78 447.27 882.52 445.34 C 884.59 444.91 885.24 442.68 886.23 441.12 C 883.40 440.43 880.47 440.12 877.59 440.65 C 870.74 441.76 863.88 442.85 857.06 444.14 C 857.09 443.37 857.15 441.83 857.18 441.06 C 867.05 439.12 876.97 437.35 886.87 435.53 C 886.55 433.75 886.20 431.98 885.86 430.21 C 880.72 429.62 875.44 430.02 870.45 428.48 C 865.21 426.89 859.89 425.63 854.59 424.29 L 855.05 423.31 C 856.21 423.03 857.34 422.63 858.49 422.27 C 856.67 408.90 858.10 395.35 857.13 381.93 C 856.43 375.61 856.80 369.23 856.03 362.92 C 855.35 355.92 855.38 348.69 852.94 342.00 C 851.50 338.06 848.41 334.30 844.03 333.72 C 836.03 332.89 828.05 334.51 820.05 334.54 C 815.89 334.52 811.76 335.01 807.65 335.54 C 804.18 335.04 800.67 335.27 797.30 336.16 C 793.44 336.26 789.59 336.36 785.75 336.47 C 784.65 330.96 783.38 325.47 781.38 320.21 C 796.69 315.04 810.27 305.93 822.42 295.43 C 824.57 293.34 827.35 291.59 828.69 288.85 C 827.84 283.92 824.33 279.99 821.56 276.00 C 827.32 270.94 835.32 267.06 836.98 258.83 C 837.68 255.77 838.57 250.59 835.01 249.15 C 830.58 251.39 828.46 257.26 823.39 258.16 C 822.15 256.26 820.92 254.35 819.45 252.62 C 818.01 257.23 817.51 262.25 814.67 266.31 C 810.81 266.95 807.81 269.58 804.65 271.66 C 795.55 277.64 785.99 283.03 775.78 286.89 C 772.27 288.22 768.52 288.87 764.77 288.72 C 768.26 285.16 772.75 282.80 776.29 279.29 C 780.50 275.14 784.35 270.53 787.20 265.34 C 788.23 263.87 787.43 262.18 786.36 261.02 C 790.22 256.18 795.81 253.34 800.69 249.71 C 800.74 249.12 800.82 247.93 800.86 247.34 C 798.82 247.17 796.78 246.98 794.75 246.81 C 795.24 242.46 795.71 238.10 795.84 233.71 C 788.02 238.27 787.58 249.04 780.01 253.86 C 775.94 256.40 773.05 260.36 769.16 263.13 C 764.39 266.59 759.37 270.04 753.51 271.27 C 748.09 262.63 742.95 253.79 739.03 244.36 C 737.12 244.76 735.21 245.17 733.35 245.71 C 732.31 243.80 731.26 241.90 730.21 240.00 C 733.18 239.79 736.15 239.55 739.12 239.26 C 740.78 238.73 743.35 238.08 743.40 235.94 C 743.90 233.52 741.24 232.47 739.85 231.04 C 741.44 228.82 743.82 226.45 742.74 223.44 C 739.38 217.21 737.40 209.92 731.91 205.11 C 731.74 203.29 731.66 201.46 731.62 199.64 C 729.76 198.34 727.60 197.47 725.31 197.74 C 719.61 198.13 713.92 198.10 708.22 197.88 C 701.78 195.92 694.98 197.15 688.40 197.36 C 679.82 198.31 671.04 197.08 662.64 199.43 C 662.72 203.70 662.88 207.98 663.35 212.23 C 664.98 212.98 666.67 213.70 668.05 214.89 C 666.59 216.95 664.75 218.70 662.94 220.45 C 670.51 223.00 678.69 221.92 686.28 224.27 C 684.51 226.00 680.81 227.65 682.30 230.70 C 683.59 234.53 684.43 238.52 683.90 242.58 C 681.91 242.90 679.92 243.21 677.93 243.49 C 681.03 243.80 684.07 244.55 687.08 245.35 C 683.96 246.08 680.86 246.87 677.78 247.75 C 673.53 247.89 668.95 247.84 665.22 250.19 C 662.85 251.63 660.32 252.79 657.65 253.53 C 658.11 264.05 658.48 274.64 657.29 285.13 C 656.52 293.09 657.22 301.10 657.05 309.08 C 657.33 312.75 653.66 315.25 653.93 318.92 C 654.02 327.30 653.93 335.69 653.97 344.07 C 653.67 347.08 655.89 349.26 657.72 351.32 C 657.39 355.99 656.94 360.65 656.53 365.32 C 655.15 365.65 653.77 365.98 652.41 366.32 C 652.45 366.85 652.55 367.91 652.59 368.43 C 623.28 363.15 593.58 360.44 564.01 356.96 C 560.58 356.52 557.12 356.38 553.66 356.44 C 548.78 345.29 543.79 334.19 538.84 323.07 C 534.22 312.87 528.80 303.02 524.78 292.56 C 528.46 292.56 532.14 292.58 535.82 292.52 C 533.25 285.13 531.11 277.61 528.81 270.13 C 539.60 275.81 550.76 280.88 562.39 284.58 C 565.17 285.58 566.67 282.20 568.38 280.65 C 573.66 283.64 576.69 289.29 582.06 292.18 C 582.22 289.92 582.33 287.65 582.44 285.38 C 586.03 285.33 589.68 285.79 593.24 285.16 C 593.50 284.88 594.02 284.31 594.28 284.03 C 588.72 278.45 579.66 279.19 574.13 273.55 C 566.88 267.55 559.12 262.18 552.07 255.93 C 545.52 249.93 539.04 243.85 532.69 237.63 C 547.03 234.21 560.24 227.27 572.92 219.90 C 576.08 218.00 579.42 216.33 582.22 213.89 C 582.58 212.25 581.90 210.61 581.73 208.99 C 582.56 208.11 582.95 206.53 584.29 206.28 C 589.32 205.19 594.71 205.86 599.45 203.49 C 597.93 201.98 596.41 200.49 594.88 199.01 C 597.33 195.86 599.80 192.69 601.35 188.99 C 593.09 189.86 587.47 196.82 579.83 199.38 L 579.25 198.65 C 566.69 201.78 553.99 204.66 541.03 205.43 C 529.95 205.70 518.87 205.64 507.79 205.35 C 507.02 201.24 506.44 197.10 506.12 192.93 C 510.27 193.98 514.82 197.42 519.05 195.07 C 522.17 191.96 522.43 187.16 522.74 183.00 C 522.82 176.72 522.99 169.79 519.08 164.49 C 520.94 162.71 518.87 159.96 517.05 158.93 C 511.31 154.20 503.53 155.70 496.72 154.51 C 495.74 149.69 494.58 144.64 491.21 140.86 C 486.90 135.44 479.78 132.97 472.99 133.37 C 463.31 133.21 454.71 139.35 444.97 138.55 C 436.43 138.65 430.59 131.29 422.64 129.40 C 417.10 127.58 411.33 129.94 406.39 132.40 Z" />
</g>
<g id="#1a1849ff">
<path fill="#1a1849" stroke="#1a1849" stroke-width="0.09375" opacity="1.00" d=" M 406.39 132.40 C 411.33 129.94 417.10 127.58 422.64 129.40 C 430.59 131.29 436.43 138.65 444.97 138.55 C 454.71 139.35 463.31 133.21 472.99 133.37 C 479.78 132.97 486.90 135.44 491.21 140.86 C 494.58 144.64 495.74 149.69 496.72 154.51 C 503.53 155.70 511.31 154.20 517.05 158.93 C 518.87 159.96 520.94 162.71 519.08 164.49 C 514.81 166.98 511.25 170.44 507.10 173.08 C 504.15 175.01 499.97 170.30 497.64 173.73 C 496.46 177.04 498.49 180.43 499.27 183.62 C 498.36 184.56 497.45 185.50 496.61 186.49 C 492.42 184.69 487.72 182.86 485.34 178.69 C 482.28 173.05 483.77 166.03 486.81 160.71 C 488.41 157.79 491.64 156.52 494.51 155.22 C 494.53 154.72 494.59 153.74 494.61 153.25 C 489.46 151.93 483.98 151.97 478.89 153.56 C 473.22 155.35 467.20 156.32 461.27 155.42 C 457.36 154.70 454.38 151.76 450.69 150.49 C 446.73 149.62 442.89 151.51 439.47 153.30 C 433.02 156.79 426.52 160.95 419.02 161.54 C 413.79 161.85 408.23 162.04 403.46 159.53 C 399.04 157.47 394.90 153.25 395.34 148.02 C 395.14 141.04 400.50 135.35 406.39 132.40 Z" />
<path fill="#1a1849" stroke="#1a1849" stroke-width="0.09375" opacity="1.00" d=" M 833.34 434.68 C 835.97 433.11 838.83 431.94 841.80 431.16 C 845.62 431.72 849.65 432.72 852.50 435.50 C 854.92 437.79 856.13 441.01 857.06 444.14 C 857.24 446.11 857.30 448.10 857.41 450.09 C 855.29 452.73 853.67 455.85 850.95 457.94 C 845.80 462.03 837.73 461.52 832.99 457.03 C 829.81 454.26 828.70 450.02 827.27 446.22 C 828.27 443.55 829.21 440.86 830.48 438.31 C 831.36 437.04 832.31 435.83 833.34 434.68 Z" />
</g>
<g id="#ffffffff">
<path fill="#ffffff" stroke="#ffffff" stroke-width="0.09375" opacity="1.00" d=" M 266.59 140.58 C 273.36 136.87 281.29 136.99 288.76 137.62 C 296.75 139.02 305.16 144.02 307.38 152.28 C 307.90 156.98 308.40 162.47 305.09 166.33 C 301.20 168.60 296.32 169.68 293.67 173.63 C 289.43 179.40 286.29 187.15 278.70 189.17 C 274.16 189.71 269.57 188.35 265.43 186.58 C 256.94 182.61 251.41 173.31 251.55 164.00 C 252.01 154.31 257.64 144.72 266.59 140.58 Z" />
<path fill="#ffffff" stroke="#ffffff" stroke-width="0.09375" opacity="1.00" d=" M 283.12 203.04 C 285.84 203.35 288.56 203.64 291.27 204.03 C 292.33 204.19 293.40 204.34 294.48 204.49 C 294.55 205.64 294.63 206.79 294.72 207.94 C 295.62 221.51 298.68 234.89 303.77 247.49 C 301.75 252.79 299.14 257.84 296.18 262.67 C 293.41 242.49 288.51 222.66 283.12 203.04 Z" />
</g>
<g id="#181746ff">
<path fill="#181746" stroke="#181746" stroke-width="0.09375" opacity="1.00" d=" M 330.52 165.52 C 336.14 160.92 344.05 160.89 350.82 162.29 C 354.22 163.16 358.61 165.98 357.33 170.07 C 349.76 171.05 342.02 170.08 334.56 171.94 C 337.67 172.36 340.81 172.57 343.96 172.70 C 344.60 173.95 345.25 175.19 345.91 176.44 C 343.66 177.98 341.50 179.80 338.85 180.63 C 336.95 181.38 334.20 181.60 333.77 184.07 C 334.19 186.89 336.16 189.79 334.19 192.47 C 328.89 189.68 326.52 183.66 325.71 178.03 C 325.07 173.42 326.78 168.41 330.52 165.52 Z" />
</g>
<g id="#171645ff">
<path fill="#171645" stroke="#171645" stroke-width="0.09375" opacity="1.00" d=" M 211.97 165.00 C 217.86 162.51 224.74 162.11 230.76 164.34 C 233.75 165.43 235.36 168.28 236.70 170.96 C 228.78 172.90 220.62 172.09 212.57 172.78 C 215.97 173.61 219.44 174.11 222.89 174.65 C 223.13 175.92 223.41 177.18 223.51 178.48 C 220.44 181.27 216.30 182.10 212.68 183.87 C 211.32 186.32 212.84 188.93 213.72 191.25 C 213.20 192.07 212.68 192.89 212.18 193.73 C 206.87 191.23 204.92 185.26 203.96 179.92 C 202.77 173.88 206.33 167.39 211.97 165.00 Z" />
</g>
<g id="#b38b68ff">
<path fill="#b38b68" stroke="#b38b68" stroke-width="0.09375" opacity="1.00" d=" M 507.10 173.08 C 511.25 170.44 514.81 166.98 519.08 164.49 C 522.99 169.79 522.82 176.72 522.74 183.00 C 522.43 187.16 522.17 191.96 519.05 195.07 C 514.82 197.42 510.27 193.98 506.12 192.93 C 506.44 197.10 507.02 201.24 507.79 205.35 C 502.63 205.23 497.47 205.25 492.31 205.29 C 494.11 199.11 494.56 192.59 496.61 186.49 C 497.45 185.50 498.36 184.56 499.27 183.62 C 498.49 180.43 496.46 177.04 497.64 173.73 C 499.97 170.30 504.15 175.01 507.10 173.08 Z" />
</g>
<g id="#353636ff">
<path fill="#353636" stroke="#353636" stroke-width="0.09375" opacity="1.00" d=" M 293.67 173.63 C 296.32 169.68 301.20 168.60 305.09 166.33 C 305.41 166.16 306.05 165.82 306.37 165.65 C 307.41 173.10 308.27 180.87 306.17 188.21 C 305.41 190.59 303.83 193.41 301.01 193.53 C 297.06 193.44 293.51 191.40 289.87 190.07 C 290.34 194.72 291.30 199.34 291.27 204.03 C 288.56 203.64 285.84 203.35 283.12 203.04 C 280.24 202.67 277.37 202.28 274.50 201.92 C 277.11 198.15 277.49 193.47 278.70 189.17 C 286.29 187.15 289.43 179.40 293.67 173.63 Z" />
</g>
<g id="#c9c9c9ff">
<path fill="#c9c9c9" stroke="#c9c9c9" stroke-width="0.09375" opacity="1.00" d=" M 334.56 171.94 C 342.02 170.08 349.76 171.05 357.33 170.07 L 358.21 169.99 C 361.77 179.97 362.84 191.48 358.30 201.32 C 357.88 202.87 356.23 202.64 354.98 202.72 C 350.87 202.96 347.26 200.75 343.67 199.09 C 344.23 204.42 344.94 209.72 345.85 215.00 C 343.02 214.32 340.20 213.64 337.35 213.11 C 335.18 212.72 332.97 212.56 330.77 212.51 L 329.73 212.54 C 330.58 205.75 331.66 198.86 334.19 192.47 C 336.16 189.79 334.19 186.89 333.77 184.07 C 334.20 181.60 336.95 181.38 338.85 180.63 C 341.50 179.80 343.66 177.98 345.91 176.44 C 345.25 175.19 344.60 173.95 343.96 172.70 C 340.81 172.57 337.67 172.36 334.56 171.94 Z" />
</g>
<g id="#c9c9caff">
<path fill="#c9c9ca" stroke="#c9c9ca" stroke-width="0.09375" opacity="1.00" d=" M 212.57 172.78 C 220.62 172.09 228.78 172.90 236.70 170.96 C 240.38 180.09 240.58 190.92 237.07 200.13 C 236.30 203.27 232.77 202.90 230.29 202.43 C 227.38 201.78 224.74 200.36 222.04 199.15 C 222.38 203.22 222.76 207.29 223.24 211.35 C 218.15 211.45 213.06 211.26 207.97 211.26 C 209.15 205.39 209.46 199.14 212.18 193.73 C 212.68 192.89 213.20 192.07 213.72 191.25 C 212.84 188.93 211.32 186.32 212.68 183.87 C 216.30 182.10 220.44 181.27 223.51 178.48 C 223.41 177.18 223.13 175.92 222.89 174.65 C 219.44 174.11 215.97 173.61 212.57 172.78 Z" />
</g>
<g id="#b28c67ff">
<path fill="#b28c67" stroke="#b28c67" stroke-width="0.09375" opacity="1.00" d=" M 579.83 199.38 C 587.47 196.82 593.09 189.86 601.35 188.99 C 599.80 192.69 597.33 195.86 594.88 199.01 C 596.41 200.49 597.93 201.98 599.45 203.49 C 594.71 205.86 589.32 205.19 584.29 206.28 C 582.95 206.53 582.56 208.11 581.73 208.99 C 581.12 205.78 580.67 202.53 579.83 199.38 Z" />
</g>
<g id="#c2575cff">
<path fill="#c2575c" stroke="#c2575c" stroke-width="0.09375" opacity="1.00" d=" M 688.40 197.36 C 694.98 197.15 701.78 195.92 708.22 197.88 C 698.84 198.14 689.47 198.73 680.09 198.92 C 681.14 203.39 681.19 208.00 681.24 212.57 C 687.19 213.44 693.17 214.00 699.16 214.45 C 693.53 215.32 687.90 216.16 682.28 217.07 C 682.58 218.28 682.90 219.49 683.23 220.70 C 690.43 221.46 697.74 221.02 704.88 222.45 C 706.48 228.09 709.90 234.19 716.34 234.98 C 717.26 239.64 718.56 244.23 719.34 248.92 L 718.35 248.86 C 709.72 247.42 700.97 247.94 692.29 248.29 C 687.45 248.19 682.62 247.77 677.78 247.75 C 680.86 246.87 683.96 246.08 687.08 245.35 C 684.07 244.55 681.03 243.80 677.93 243.49 C 679.92 243.21 681.91 242.90 683.90 242.58 C 684.43 238.52 683.59 234.53 682.30 230.70 C 680.81 227.65 684.51 226.00 686.28 224.27 C 678.69 221.92 670.51 223.00 662.94 220.45 C 664.75 218.70 666.59 216.95 668.05 214.89 C 666.67 213.70 664.98 212.98 663.35 212.23 C 662.88 207.98 662.72 203.70 662.64 199.43 C 671.04 197.08 679.82 198.31 688.40 197.36 Z" />
</g>
<g id="#cd6a73ff">
<path fill="#cd6a73" stroke="#cd6a73" stroke-width="0.09375" opacity="1.00" d=" M 725.31 197.74 C 727.60 197.47 729.76 198.34 731.62 199.64 C 724.07 198.32 715.19 197.58 708.98 202.98 C 703.61 207.82 704.20 215.90 704.88 222.45 C 697.74 221.02 690.43 221.46 683.23 220.70 C 682.90 219.49 682.58 218.28 682.28 217.07 C 687.90 216.16 693.53 215.32 699.16 214.45 C 693.17 214.00 687.19 213.44 681.24 212.57 C 681.19 208.00 681.14 203.39 680.09 198.92 C 689.47 198.73 698.84 198.14 708.22 197.88 C 713.92 198.10 719.61 198.13 725.31 197.74 Z" />
</g>
<g id="#0c0c0cff">
<path fill="#0c0c0c" stroke="#0c0c0c" stroke-width="0.09375" opacity="1.00" d=" M 247.50 201.45 C 250.70 198.92 255.11 198.34 259.01 199.27 C 264.15 200.30 269.26 201.48 274.50 201.92 C 277.37 202.28 280.24 202.67 283.12 203.04 C 288.51 222.66 293.41 242.49 296.18 262.67 C 293.90 270.81 290.28 278.50 287.64 286.52 C 272.90 273.35 255.91 262.56 243.24 247.21 C 247.06 239.56 251.71 232.39 255.98 225.00 C 249.09 223.38 245.81 216.38 244.71 210.00 C 244.17 206.93 244.99 203.45 247.50 201.45 Z" />
</g>
<g id="#4ecdc4ff">
<path fill="#4ecdc4" stroke="#4ecdc4" stroke-width="0.09375" opacity="1.00" d=" M 541.03 205.43 C 553.99 204.66 566.69 201.78 579.25 198.65 L 579.83 199.38 C 580.67 202.53 581.12 205.78 581.73 208.99 C 581.90 210.61 582.58 212.25 582.22 213.89 C 579.42 216.33 576.08 218.00 572.92 219.90 C 560.24 227.27 547.03 234.21 532.69 237.63 C 528.66 238.39 524.64 239.20 520.67 240.20 C 518.28 239.90 515.88 239.68 513.49 239.48 C 515.26 249.67 517.35 259.83 518.38 270.14 C 518.96 277.63 518.76 285.16 518.55 292.67 C 516.82 298.08 515.38 304.05 511.04 308.05 C 507.25 311.47 501.81 311.53 497.00 311.50 C 487.80 311.34 478.60 311.60 469.40 311.26 C 469.50 305.48 468.38 299.77 468.64 293.99 C 469.64 266.52 476.22 239.31 487.17 214.12 C 488.49 210.97 490.22 208.00 492.31 205.29 C 497.47 205.25 502.63 205.23 507.79 205.35 C 518.87 205.64 529.95 205.70 541.03 205.43 Z" />
</g>
<g id="#fefefeff">
<path fill="#fefefe" stroke="#fefefe" stroke-width="0.09375" opacity="1.00" d=" M 708.98 202.98 C 715.19 197.58 724.07 198.32 731.62 199.64 C 731.66 201.46 731.74 203.29 731.91 205.11 C 728.32 207.86 722.13 208.86 721.36 214.04 C 722.35 217.84 724.34 221.33 726.27 224.73 C 727.53 226.60 729.03 229.44 731.76 228.67 C 735.73 227.69 739.04 225.10 742.74 223.44 C 743.82 226.45 741.44 228.82 739.85 231.04 C 741.24 232.47 743.90 233.52 743.40 235.94 C 743.35 238.08 740.78 238.73 739.12 239.26 C 734.94 239.12 729.59 239.94 726.50 236.51 C 723.12 230.98 721.80 224.49 719.44 218.50 C 717.85 219.62 715.69 220.24 714.81 222.11 C 715.47 226.38 716.54 230.61 716.34 234.98 C 709.90 234.19 706.48 228.09 704.88 222.45 C 704.20 215.90 703.61 207.82 708.98 202.98 Z" />
</g>
<g id="#b28b65ff">
<path fill="#b28b65" stroke="#b28b65" stroke-width="0.09375" opacity="1.00" d=" M 731.91 205.11 C 737.40 209.92 739.38 217.21 742.74 223.44 C 739.04 225.10 735.73 227.69 731.76 228.67 C 729.03 229.44 727.53 226.60 726.27 224.73 C 724.34 221.33 722.35 217.84 721.36 214.04 C 722.13 208.86 728.32 207.86 731.91 205.11 Z" />
</g>
<g id="#181818ff">
<path fill="#181818" stroke="#181818" stroke-width="0.09375" opacity="1.00" d=" M 294.72 207.94 C 301.76 214.47 307.57 222.36 312.33 230.67 C 312.48 234.10 310.39 236.93 308.71 239.72 C 307.04 242.40 306.24 245.49 305.44 248.52 C 304.88 248.17 304.33 247.83 303.77 247.49 C 298.68 234.89 295.62 221.51 294.72 207.94 Z" />
</g>
<g id="#4f4f4fff">
<path fill="#4f4f4f" stroke="#4f4f4f" stroke-width="0.09375" opacity="1.00" d=" M 203.74 215.99 C 204.01 213.67 205.01 210.65 207.97 211.26 C 213.06 211.26 218.15 211.45 223.24 211.35 C 225.97 211.40 228.95 211.07 231.39 212.57 C 232.36 220.53 231.50 228.69 233.45 236.57 C 235.30 253.16 242.67 268.50 251.64 282.37 C 255.32 287.84 258.31 293.83 259.55 300.36 C 258.95 305.70 257.59 311.29 253.62 315.19 C 252.48 316.13 251.28 316.98 250.11 317.88 C 245.92 321.23 241.55 324.40 236.60 326.55 C 232.61 328.28 228.78 330.81 226.86 334.87 C 226.95 333.64 227.02 332.41 227.08 331.18 C 217.20 333.46 206.17 337.61 196.48 332.51 C 189.77 327.95 188.28 319.15 186.53 311.79 C 186.26 310.46 186.02 309.13 185.77 307.80 C 183.41 312.72 182.79 318.18 181.38 323.39 C 179.77 329.62 174.07 333.33 169.28 337.04 C 166.21 336.29 163.11 335.60 160.11 334.60 C 158.92 334.26 158.62 332.86 157.99 331.96 C 156.13 328.27 154.31 324.34 154.41 320.11 C 154.67 308.17 157.42 296.44 161.08 285.12 C 167.74 263.51 179.45 243.43 195.16 227.16 C 198.27 223.67 203.17 221.08 203.74 215.99 Z" />
<path fill="#4f4f4f" stroke="#4f4f4f" stroke-width="0.09375" opacity="1.00" d=" M 309.37 331.51 C 309.61 328.29 309.89 325.02 311.01 321.97 C 312.80 325.75 312.05 330.01 311.85 334.02 C 310.89 345.25 310.67 356.53 309.68 367.75 C 308.95 376.47 305.65 384.65 302.78 392.83 C 300.71 398.46 298.97 404.20 297.00 409.86 C 297.17 402.41 294.54 395.34 292.74 388.22 C 290.12 378.79 288.63 369.09 285.86 359.70 C 285.35 360.52 284.86 361.36 284.38 362.20 C 285.40 359.06 286.03 355.81 286.27 352.52 C 288.48 354.54 290.95 356.26 293.76 357.35 C 292.48 352.87 290.05 348.70 289.62 344.01 C 289.98 339.59 291.90 335.49 293.13 331.27 C 298.54 331.39 303.96 331.51 309.37 331.51 Z" />
</g>
<g id="#252525ff">
<path fill="#252525" stroke="#252525" stroke-width="0.09375" opacity="1.00" d=" M 314.96 229.84 C 320.00 224.21 323.45 216.97 329.73 212.54 L 330.77 212.51 C 330.28 213.33 329.79 214.15 329.30 214.97 C 331.34 215.20 333.39 215.46 335.44 215.68 C 340.35 225.04 339.08 235.84 340.24 245.99 C 341.65 260.33 342.57 274.72 344.14 289.05 C 344.68 294.52 344.28 300.20 346.39 305.40 C 346.87 303.87 347.33 302.33 347.76 300.78 C 347.94 302.02 348.17 303.26 348.40 304.50 C 351.91 304.47 355.43 304.45 358.95 304.46 C 358.78 305.09 358.44 306.36 358.27 307.00 C 354.99 306.94 351.72 306.90 348.44 306.86 C 349.04 311.50 349.52 316.15 349.93 320.82 C 336.33 321.31 322.71 321.00 309.11 321.00 C 308.99 324.15 308.83 327.30 308.67 330.45 C 299.31 330.50 289.96 329.96 280.60 330.45 C 280.52 332.17 280.45 333.88 280.39 335.61 C 277.66 327.11 280.94 318.44 282.11 309.98 C 283.83 302.13 285.54 294.28 287.64 286.52 C 290.28 278.50 293.90 270.81 296.18 262.67 C 299.14 257.84 301.75 252.79 303.77 247.49 C 304.33 247.83 304.88 248.17 305.44 248.52 C 306.24 245.49 307.04 242.40 308.71 239.72 C 310.39 236.93 312.48 234.10 312.33 230.67 C 313.20 230.41 314.27 230.53 314.96 229.84 M 320.60 295.93 C 326.46 296.60 332.37 296.43 338.25 296.12 C 338.29 293.27 338.28 290.42 338.21 287.58 C 332.12 289.84 326.08 292.39 320.60 295.93 Z" />
</g>
<g id="#141416ff">
<path fill="#141416" stroke="#141416" stroke-width="0.09375" opacity="1.00" d=" M 330.77 212.51 C 332.97 212.56 335.18 212.72 337.35 213.11 C 338.89 218.70 341.84 223.99 341.74 229.93 C 343.15 253.60 345.65 277.18 347.76 300.78 C 347.33 302.33 346.87 303.87 346.39 305.40 C 344.28 300.20 344.68 294.52 344.14 289.05 C 342.57 274.72 341.65 260.33 340.24 245.99 C 339.08 235.84 340.35 225.04 335.44 215.68 C 333.39 215.46 331.34 215.20 329.30 214.97 C 329.79 214.15 330.28 213.33 330.77 212.51 Z" />
</g>
<g id="#dee4eaff">
<path fill="#dee4ea" stroke="#dee4ea" stroke-width="0.09375" opacity="1.00" d=" M 337.35 213.11 C 340.20 213.64 343.02 214.32 345.85 215.00 C 346.48 215.15 347.74 215.45 348.37 215.60 C 348.47 218.70 348.51 221.81 348.86 224.90 C 350.99 247.23 357.32 268.91 364.62 290.04 C 366.29 294.62 367.76 299.29 369.97 303.66 C 366.39 304.70 362.63 304.41 358.95 304.46 C 355.43 304.45 351.91 304.47 348.40 304.50 C 348.17 303.26 347.94 302.02 347.76 300.78 C 345.65 277.18 343.15 253.60 341.74 229.93 C 341.84 223.99 338.89 218.70 337.35 213.11 Z" />
</g>
<g id="#b18b65ff">
<path fill="#b18b65" stroke="#b18b65" stroke-width="0.09375" opacity="1.00" d=" M 714.81 222.11 C 715.69 220.24 717.85 219.62 719.44 218.50 C 721.80 224.49 723.12 230.98 726.50 236.51 C 729.59 239.94 734.94 239.12 739.12 239.26 C 736.15 239.55 733.18 239.79 730.21 240.00 C 731.26 241.90 732.31 243.80 733.35 245.71 C 729.34 246.96 725.36 248.37 721.20 249.02 C 720.73 248.99 719.81 248.95 719.34 248.92 C 718.56 244.23 717.26 239.64 716.34 234.98 C 716.54 230.61 715.47 226.38 714.81 222.11 Z" />
</g>
<g id="#000000ff">
<path fill="#000000" stroke="#000000" stroke-width="0.09375" opacity="1.00" d=" M 348.86 224.90 C 352.26 229.75 354.36 235.34 357.60 240.29 C 370.34 261.79 387.65 280.30 406.93 296.08 C 408.31 296.76 407.70 297.93 406.96 298.86 C 404.91 301.61 402.64 304.18 400.49 306.85 C 395.58 312.79 390.72 318.76 385.77 324.67 C 381.85 320.68 378.45 316.22 375.25 311.65 C 373.44 309.01 371.59 306.40 369.97 303.66 C 367.76 299.29 366.29 294.62 364.62 290.04 C 357.32 268.91 350.99 247.23 348.86 224.90 Z" />
<path fill="#000000" stroke="#000000" stroke-width="0.09375" opacity="1.00" d=" M 277.25 462.42 C 283.44 462.20 289.99 461.31 295.84 463.94 C 304.92 468.87 314.46 472.92 324.40 475.77 C 324.59 476.72 324.78 477.68 324.97 478.64 C 311.29 478.84 297.60 478.67 283.93 478.42 C 281.37 478.34 278.68 478.71 276.25 477.76 C 274.92 472.70 276.63 467.47 277.25 462.42 Z" />
</g>
<g id="#98775aff">
<path fill="#98775a" stroke="#98775a" stroke-width="0.09375" opacity="1.00" d=" M 780.01 253.86 C 787.58 249.04 788.02 238.27 795.84 233.71 C 795.71 238.10 795.24 242.46 794.75 246.81 C 796.78 246.98 798.82 247.17 800.86 247.34 C 800.82 247.93 800.74 249.12 800.69 249.71 C 795.81 253.34 790.22 256.18 786.36 261.02 C 784.38 258.52 782.17 256.20 780.01 253.86 Z" />
</g>
<g id="#3c3c3cff">
<path fill="#3c3c3c" stroke="#3c3c3c" stroke-width="0.09375" opacity="1.00" d=" M 251.64 282.37 C 242.67 268.50 235.30 253.16 233.45 236.57 C 236.83 240.00 239.80 243.81 243.24 247.21 C 255.91 262.56 272.90 273.35 287.64 286.52 C 285.54 294.28 283.83 302.13 282.11 309.98 C 281.42 311.34 280.66 312.67 279.91 314.01 C 276.52 313.02 273.05 312.01 270.07 310.04 C 267.79 307.89 265.66 305.59 263.35 303.49 C 262.14 302.38 260.85 301.36 259.55 300.36 C 258.31 293.83 255.32 287.84 251.64 282.37 Z" />
</g>
<g id="#35a29cff">
<path fill="#35a29c" stroke="#35a29c" stroke-width="0.09375" opacity="1.00" d=" M 520.67 240.20 C 524.64 239.20 528.66 238.39 532.69 237.63 C 539.04 243.85 545.52 249.93 552.07 255.93 C 559.12 262.18 566.88 267.55 574.13 273.55 C 572.24 275.94 570.34 278.33 568.38 280.65 C 566.67 282.20 565.17 285.58 562.39 284.58 C 550.76 280.88 539.60 275.81 528.81 270.13 C 525.86 260.22 523.03 250.27 520.67 240.20 Z" />
</g>
<g id="#f4f3f3ff">
<path fill="#f4f3f3" stroke="#f4f3f3" stroke-width="0.09375" opacity="1.00" d=" M 513.49 239.48 C 515.88 239.68 518.28 239.90 520.67 240.20 C 523.03 250.27 525.86 260.22 528.81 270.13 C 531.11 277.61 533.25 285.13 535.82 292.52 C 532.14 292.58 528.46 292.56 524.78 292.56 C 523.07 292.56 521.37 292.56 519.68 292.61 L 518.55 292.67 C 518.76 285.16 518.96 277.63 518.38 270.14 C 517.35 259.83 515.26 249.67 513.49 239.48 Z" />
</g>
<g id="#2029d0ff">
<path fill="#2029d0" stroke="#2029d0" stroke-width="0.09375" opacity="1.00" d=" M 721.20 249.02 C 725.36 248.37 729.34 246.96 733.35 245.71 C 735.21 245.17 737.12 244.76 739.03 244.36 C 742.95 253.79 748.09 262.63 753.51 271.27 C 757.40 277.00 761.82 282.41 764.77 288.72 C 768.52 288.87 772.27 288.22 775.78 286.89 C 785.99 283.03 795.55 277.64 804.65 271.66 C 807.81 269.58 810.81 266.95 814.67 266.31 C 816.78 269.66 819.17 272.83 821.56 276.00 C 824.33 279.99 827.84 283.92 828.69 288.85 C 827.35 291.59 824.57 293.34 822.42 295.43 C 810.27 305.93 796.69 315.04 781.38 320.21 C 783.38 325.47 784.65 330.96 785.75 336.47 C 789.59 336.36 793.44 336.26 797.30 336.16 C 779.10 339.31 760.90 342.47 742.74 345.86 C 733.42 347.18 724.31 349.77 714.91 350.48 C 714.30 345.00 713.37 339.51 713.79 333.98 C 714.20 328.44 714.84 322.92 715.22 317.37 C 715.62 310.75 712.65 304.58 711.99 298.07 C 710.73 286.95 711.88 275.73 713.51 264.70 C 714.26 260.57 714.91 256.37 716.43 252.44 C 717.03 250.32 719.44 249.83 721.20 249.02 Z" />
<path fill="#2029d0" stroke="#2029d0" stroke-width="0.09375" opacity="1.00" d=" M 802.78 383.38 C 806.88 382.21 811.08 381.39 815.34 381.15 C 817.54 389.39 820.10 397.54 823.26 405.47 C 820.19 412.88 817.77 420.57 815.98 428.39 C 814.34 428.05 812.70 427.71 811.07 427.41 C 806.02 426.46 800.97 425.55 795.85 425.11 C 795.14 422.12 795.11 419.00 795.89 416.02 C 797.17 410.78 798.36 405.52 799.43 400.23 C 800.67 394.64 802.23 389.10 802.78 383.38 Z" />
</g>
<g id="#bc4c5dff">
<path fill="#bc4c5d" stroke="#bc4c5d" stroke-width="0.09375" opacity="1.00" d=" M 665.22 250.19 C 668.95 247.84 673.53 247.89 677.78 247.75 C 682.62 247.77 687.45 248.19 692.29 248.29 C 686.00 248.93 679.71 249.52 673.43 250.14 C 673.87 255.18 673.92 260.25 673.46 265.30 C 672.61 274.08 673.49 283.02 671.41 291.67 C 669.54 299.12 670.17 306.84 669.48 314.43 C 668.78 321.95 668.90 329.51 668.88 337.05 C 669.01 340.29 668.96 344.05 671.50 346.48 C 674.38 349.36 677.68 351.83 680.12 355.14 C 677.95 355.71 675.83 356.42 673.71 357.14 C 673.94 360.39 673.85 363.67 674.42 366.89 C 675.04 368.92 676.59 370.50 677.81 372.20 C 672.68 371.70 667.62 370.68 662.53 369.91 C 659.22 369.41 655.90 368.96 652.59 368.43 C 652.55 367.91 652.45 366.85 652.41 366.32 C 653.77 365.98 655.15 365.65 656.53 365.32 C 656.94 360.65 657.39 355.99 657.72 351.32 C 655.89 349.26 653.67 347.08 653.97 344.07 C 653.93 335.69 654.02 327.30 653.93 318.92 C 653.66 315.25 657.33 312.75 657.05 309.08 C 657.22 301.10 656.52 293.09 657.29 285.13 C 658.48 274.64 658.11 264.05 657.65 253.53 C 660.32 252.79 662.85 251.63 665.22 250.19 Z" />
</g>
<g id="#b44964ff">
<path fill="#b44964" stroke="#b44964" stroke-width="0.09375" opacity="1.00" d=" M 692.29 248.29 C 700.97 247.94 709.72 247.42 718.35 248.86 C 708.48 249.39 698.36 248.48 688.71 250.89 C 687.21 253.96 687.92 257.51 687.69 260.80 C 687.78 267.96 685.02 274.79 685.15 281.96 C 685.56 290.12 682.25 298.03 683.67 306.21 C 684.52 314.48 681.87 322.61 682.41 330.88 C 682.81 336.26 682.35 341.69 683.02 347.05 C 685.56 348.99 688.93 349.14 691.99 349.61 C 687.91 349.34 683.93 350.37 680.15 351.79 C 683.12 352.52 686.12 353.17 689.12 353.79 C 686.11 354.19 683.10 354.56 680.12 355.14 C 677.68 351.83 674.38 349.36 671.50 346.48 C 668.96 344.05 669.01 340.29 668.88 337.05 C 668.90 329.51 668.78 321.95 669.48 314.43 C 670.17 306.84 669.54 299.12 671.41 291.67 C 673.49 283.02 672.61 274.08 673.46 265.30 C 673.92 260.25 673.87 255.18 673.43 250.14 C 679.71 249.52 686.00 248.93 692.29 248.29 Z" />
</g>
<g id="#a5466eff">
<path fill="#a5466e" stroke="#a5466e" stroke-width="0.09375" opacity="1.00" d=" M 688.71 250.89 C 698.36 248.48 708.48 249.39 718.35 248.86 L 719.34 248.92 C 719.81 248.95 720.73 248.99 721.20 249.02 C 719.44 249.83 717.03 250.32 716.43 252.44 C 714.91 256.37 714.26 260.57 713.51 264.70 C 711.88 275.73 710.73 286.95 711.99 298.07 C 712.65 304.58 715.62 310.75 715.22 317.37 C 714.84 322.92 714.20 328.44 713.79 333.98 C 713.37 339.51 714.30 345.00 714.91 350.48 C 711.63 351.53 708.89 353.67 706.39 355.97 C 706.88 353.99 707.54 352.07 708.20 350.15 C 702.79 350.33 697.38 350.02 691.99 349.61 C 688.93 349.14 685.56 348.99 683.02 347.05 C 682.35 341.69 682.81 336.26 682.41 330.88 C 681.87 322.61 684.52 314.48 683.67 306.21 C 682.25 298.03 685.56 290.12 685.15 281.96 C 685.02 274.79 687.78 267.96 687.69 260.80 C 687.92 257.51 687.21 253.96 688.71 250.89 Z" />
</g>
<g id="#99775aff">
<path fill="#99775a" stroke="#99775a" stroke-width="0.09375" opacity="1.00" d=" M 823.39 258.16 C 828.46 257.26 830.58 251.39 835.01 249.15 C 838.57 250.59 837.68 255.77 836.98 258.83 C 835.32 267.06 827.32 270.94 821.56 276.00 C 819.17 272.83 816.78 269.66 814.67 266.31 C 817.51 262.25 818.01 257.23 819.45 252.62 C 820.92 254.35 822.15 256.26 823.39 258.16 Z" />
</g>
<g id="#1f26a2ff">
<path fill="#1f26a2" stroke="#1f26a2" stroke-width="0.09375" opacity="1.00" d=" M 769.16 263.13 C 773.05 260.36 775.94 256.40 780.01 253.86 C 782.17 256.20 784.38 258.52 786.36 261.02 C 787.43 262.18 788.23 263.87 787.20 265.34 C 784.35 270.53 780.50 275.14 776.29 279.29 C 772.75 282.80 768.26 285.16 764.77 288.72 C 761.82 282.41 757.40 277.00 753.51 271.27 C 759.37 270.04 764.39 266.59 769.16 263.13 Z" />
</g>
<g id="#b28d68ff">
<path fill="#b28d68" stroke="#b28d68" stroke-width="0.09375" opacity="1.00" d=" M 574.13 273.55 C 579.66 279.19 588.72 278.45 594.28 284.03 C 594.02 284.31 593.50 284.88 593.24 285.16 C 589.68 285.79 586.03 285.33 582.44 285.38 C 582.33 287.65 582.22 289.92 582.06 292.18 C 576.69 289.29 573.66 283.64 568.38 280.65 C 570.34 278.33 572.24 275.94 574.13 273.55 Z" />
</g>
<g id="#555555ff">
<path fill="#555555" stroke="#555555" stroke-width="0.09375" opacity="1.00" d=" M 320.60 295.93 C 326.08 292.39 332.12 289.84 338.21 287.58 C 338.28 290.42 338.29 293.27 338.25 296.12 C 332.37 296.43 326.46 296.60 320.60 295.93 Z" />
</g>
<g id="#c7f465ff">
<path fill="#c7f465" stroke="#c7f465" stroke-width="0.09375" opacity="1.00" d=" M 511.04 308.05 C 515.38 304.05 516.82 298.08 518.55 292.67 L 519.68 292.61 C 518.85 300.51 516.68 308.17 514.97 315.91 C 511.93 329.56 508.39 343.11 504.31 356.49 C 501.29 366.27 498.08 376.08 493.05 385.04 C 490.51 389.56 486.97 393.77 482.12 395.88 C 473.86 399.44 464.77 400.29 455.88 400.87 C 441.51 402.19 427.12 400.41 412.75 399.89 C 410.81 395.85 409.68 391.50 408.83 387.13 C 409.91 386.47 410.98 385.81 412.09 385.20 C 424.46 380.53 437.12 376.52 449.27 371.23 C 452.71 369.56 456.98 368.56 459.27 365.28 C 461.59 359.20 461.88 352.58 463.36 346.28 C 465.56 334.64 467.12 322.88 469.40 311.26 C 478.60 311.60 487.80 311.34 497.00 311.50 C 501.81 311.53 507.25 311.47 511.04 308.05 Z" />
</g>
<g id="#a6cf4dff">
<path fill="#a6cf4d" stroke="#a6cf4d" stroke-width="0.09375" opacity="1.00" d=" M 519.68 292.61 C 521.37 292.56 523.07 292.56 524.78 292.56 C 528.80 303.02 534.22 312.87 538.84 323.07 C 543.79 334.19 548.78 345.29 553.66 356.44 C 561.03 373.93 568.02 391.59 574.69 409.36 C 579.56 422.80 584.91 436.08 589.02 449.77 C 587.94 450.17 586.86 450.57 585.79 450.98 C 581.83 452.37 577.80 453.55 573.78 454.72 C 568.53 453.80 566.19 448.58 563.14 444.85 C 545.58 422.00 529.10 398.28 514.66 373.32 C 511.30 367.66 508.61 361.54 504.31 356.49 C 508.39 343.11 511.93 329.56 514.97 315.91 C 516.68 308.17 518.85 300.51 519.68 292.61 Z" />
</g>
<g id="#c9cbcbff">
<path fill="#c9cbcb" stroke="#c9cbcb" stroke-width="0.09375" opacity="1.00" d=" M 406.96 298.86 C 410.43 302.14 413.59 305.92 417.98 308.02 C 423.46 310.71 429.16 313.44 433.17 318.22 C 428.42 318.71 423.78 317.30 419.06 317.20 C 418.84 319.56 418.68 321.93 418.48 324.30 C 412.61 320.47 410.83 312.80 404.64 309.39 C 403.27 308.52 401.87 307.69 400.49 306.85 C 402.64 304.18 404.91 301.61 406.96 298.86 Z" />
</g>
<g id="#2e2e2eff">
<path fill="#2e2e2e" stroke="#2e2e2e" stroke-width="0.09375" opacity="1.00" d=" M 259.55 300.36 C 260.85 301.36 262.14 302.38 263.35 303.49 C 262.44 306.09 263.21 308.96 265.51 310.57 C 267.04 310.52 268.55 310.24 270.07 310.04 C 273.05 312.01 276.52 313.02 279.91 314.01 C 280.66 312.67 281.42 311.34 282.11 309.98 C 280.94 318.44 277.66 327.11 280.39 335.61 C 279.35 341.86 273.45 345.23 268.90 348.86 C 266.07 350.82 263.09 353.03 262.48 356.68 C 264.94 357.44 267.39 358.60 270.02 358.53 C 275.88 357.77 280.19 352.33 286.27 352.52 C 286.03 355.81 285.40 359.06 284.38 362.20 C 279.81 377.20 275.25 392.22 270.02 407.01 C 266.80 415.94 264.04 425.07 259.75 433.57 C 258.46 423.08 259.13 412.51 258.66 401.99 C 257.92 381.27 256.78 360.54 254.01 339.98 C 253.30 334.65 253.28 329.26 253.49 323.90 C 253.65 321.00 253.64 318.09 253.62 315.19 C 257.59 311.29 258.95 305.70 259.55 300.36 Z" />
</g>
<g id="#212121ff">
<path fill="#212121" stroke="#212121" stroke-width="0.09375" opacity="1.00" d=" M 369.97 303.66 C 371.59 306.40 373.44 309.01 375.25 311.65 C 373.10 309.67 370.55 308.08 367.52 308.22 C 368.85 321.48 370.81 334.68 372.46 347.91 C 375.50 372.56 378.78 397.19 381.86 421.84 C 383.36 435.22 385.65 448.51 386.58 461.95 C 381.23 462.27 375.87 462.27 370.53 461.89 C 370.21 459.46 369.61 457.09 368.95 454.75 C 360.41 425.56 352.22 396.26 343.93 367.00 C 342.99 363.03 342.34 358.81 343.71 354.86 C 348.96 339.04 354.10 323.15 358.27 307.00 C 358.44 306.36 358.78 305.09 358.95 304.46 C 362.63 304.41 366.39 304.70 369.97 303.66 Z" />
</g>
<g id="#080808ff">
<path fill="#080808" stroke="#080808" stroke-width="0.09375" opacity="1.00" d=" M 265.51 310.57 C 263.21 308.96 262.44 306.09 263.35 303.49 C 265.66 305.59 267.79 307.89 270.07 310.04 C 268.55 310.24 267.04 310.52 265.51 310.57 Z" />
</g>
<g id="#383838ff">
<path fill="#383838" stroke="#383838" stroke-width="0.09375" opacity="1.00" d=" M 348.44 306.86 C 351.72 306.90 354.99 306.94 358.27 307.00 C 354.10 323.15 348.96 339.04 343.71 354.86 C 342.34 358.81 342.99 363.03 343.93 367.00 C 343.24 365.22 342.46 363.49 341.65 361.78 C 337.78 373.28 332.32 384.09 326.97 394.94 C 319.46 410.41 312.13 425.97 304.16 441.20 C 301.11 448.13 297.57 454.83 294.40 461.70 C 294.88 462.44 295.36 463.19 295.84 463.94 C 289.99 461.31 283.44 462.20 277.25 462.42 C 276.63 467.47 274.92 472.70 276.25 477.76 C 278.68 478.71 281.37 478.34 283.93 478.42 C 280.69 479.03 277.23 479.28 274.08 478.16 C 274.59 475.14 274.78 472.09 275.16 469.06 C 275.46 466.86 275.78 464.65 276.47 462.53 C 280.55 455.99 282.57 448.51 285.31 441.37 C 289.17 430.85 292.97 420.31 297.00 409.86 C 298.97 404.20 300.71 398.46 302.78 392.83 C 305.65 384.65 308.95 376.47 309.68 367.75 C 310.67 356.53 310.89 345.25 311.85 334.02 C 312.05 330.01 312.80 325.75 311.01 321.97 C 309.89 325.02 309.61 328.29 309.37 331.51 C 303.96 331.51 298.54 331.39 293.13 331.27 C 289.44 331.21 285.76 331.23 282.07 331.17 C 281.49 332.64 280.91 334.11 280.39 335.61 C 280.45 333.88 280.52 332.17 280.60 330.45 C 289.96 329.96 299.31 330.50 308.67 330.45 C 308.83 327.30 308.99 324.15 309.11 321.00 C 322.71 321.00 336.33 321.31 349.93 320.82 C 349.52 316.15 349.04 311.50 348.44 306.86 Z" />
</g>
<g id="#5b5b5bff">
<path fill="#5b5b5b" stroke="#5b5b5b" stroke-width="0.09375" opacity="1.00" d=" M 185.40 333.72 C 186.03 326.42 184.84 318.99 186.53 311.79 C 188.28 319.15 189.77 327.95 196.48 332.51 C 206.17 337.61 217.20 333.46 227.08 331.18 C 227.02 332.41 226.95 333.64 226.86 334.87 C 224.54 343.76 221.79 352.52 219.25 361.34 C 218.24 364.80 218.27 368.45 218.84 371.98 C 218.33 370.89 217.78 369.82 217.23 368.76 C 208.99 395.72 200.52 422.68 189.75 448.77 C 188.96 450.93 187.26 452.57 185.17 453.49 C 179.39 453.37 173.60 453.12 167.82 453.62 C 166.98 451.37 166.70 448.93 167.51 446.63 C 170.43 436.18 172.30 425.49 174.89 414.96 C 177.66 403.35 178.93 391.47 180.72 379.69 C 183.42 364.49 184.03 349.06 185.40 333.72 Z" />
</g>
<g id="#b14858ff">
<path fill="#b14858" stroke="#b14858" stroke-width="0.09375" opacity="1.00" d=" M 250.11 317.88 C 251.28 316.98 252.48 316.13 253.62 315.19 C 253.64 318.09 253.65 321.00 253.49 323.90 C 253.11 325.35 252.65 326.78 252.21 328.21 C 251.42 324.78 250.74 321.34 250.11 317.88 Z" />
</g>
<g id="#494949ff">
<path fill="#494949" stroke="#494949" stroke-width="0.09375" opacity="1.00" d=" M 236.60 326.55 C 241.55 324.40 245.92 321.23 250.11 317.88 C 250.74 321.34 251.42 324.78 252.21 328.21 C 252.65 326.78 253.11 325.35 253.49 323.90 C 253.28 329.26 253.30 334.65 254.01 339.98 C 256.78 360.54 257.92 381.27 258.66 401.99 C 259.13 412.51 258.46 423.08 259.75 433.57 C 259.07 439.69 258.73 445.84 258.71 452.00 C 258.05 452.06 256.73 452.19 256.07 452.26 C 251.18 452.62 246.24 452.09 241.38 452.85 C 238.76 453.39 236.07 453.29 233.52 452.51 C 234.54 449.96 235.86 447.33 235.45 444.50 C 234.67 436.07 232.03 427.97 230.35 419.70 C 228.56 411.05 225.95 402.60 223.99 393.99 C 222.21 386.67 220.98 379.22 218.84 371.98 C 218.27 368.45 218.24 364.80 219.25 361.34 C 221.79 352.52 224.54 343.76 226.86 334.87 C 228.78 330.81 232.61 328.28 236.60 326.55 Z" />
</g>
<g id="#cacacaff">
<path fill="#cacaca" stroke="#cacaca" stroke-width="0.09375" opacity="1.00" d=" M 282.07 331.17 C 285.76 331.23 289.44 331.21 293.13 331.27 C 291.90 335.49 289.98 339.59 289.62 344.01 C 290.05 348.70 292.48 352.87 293.76 357.35 C 290.95 356.26 288.48 354.54 286.27 352.52 C 280.19 352.33 275.88 357.77 270.02 358.53 C 267.39 358.60 264.94 357.44 262.48 356.68 C 263.09 353.03 266.07 350.82 268.90 348.86 C 273.45 345.23 279.35 341.86 280.39 335.61 C 280.91 334.11 281.49 332.64 282.07 331.17 Z" />
<path fill="#cacaca" stroke="#cacaca" stroke-width="0.09375" opacity="1.00" d=" M 241.38 452.85 C 246.24 452.09 251.18 452.62 256.07 452.26 C 256.12 453.44 256.18 454.62 256.24 455.81 C 256.31 457.43 256.38 459.06 256.47 460.69 C 251.63 462.46 246.33 463.26 241.34 461.62 C 241.63 458.70 241.48 455.77 241.38 452.85 Z" />
</g>
<g id="#3a41f1ff">
<path fill="#3a41f1" stroke="#3a41f1" stroke-width="0.09375" opacity="1.00" d=" M 820.05 334.54 C 828.05 334.51 836.03 332.89 844.03 333.72 C 848.41 334.30 851.50 338.06 852.94 342.00 C 855.38 348.69 855.35 355.92 856.03 362.92 C 856.80 369.23 856.43 375.61 857.13 381.93 C 858.10 395.35 856.67 408.90 858.49 422.27 C 857.34 422.63 856.21 423.03 855.05 423.31 C 849.98 424.08 844.86 424.47 839.81 425.31 C 837.74 419.64 835.51 414.03 833.69 408.27 C 833.28 399.31 832.51 390.35 831.19 381.47 C 830.90 374.23 830.22 367.00 828.83 359.88 C 825.03 360.79 821.28 361.92 817.62 363.27 C 814.50 353.95 810.71 344.88 807.65 335.54 C 811.76 335.01 815.89 334.52 820.05 334.54 Z" />
</g>
<g id="#c9cacbff">
<path fill="#c9cacb" stroke="#c9cacb" stroke-width="0.09375" opacity="1.00" d=" M 141.31 353.34 C 148.25 347.82 156.37 343.06 160.11 334.60 C 163.11 335.60 166.21 336.29 169.28 337.04 C 168.69 339.65 167.82 342.27 167.86 344.98 C 168.63 349.18 170.76 352.97 171.90 357.06 C 168.65 356.50 166.41 354.01 163.70 352.40 C 157.88 352.64 153.66 358.02 147.84 358.51 C 145.53 358.54 143.38 357.50 141.23 356.81 C 141.27 355.65 141.30 354.49 141.31 353.34 Z" />
</g>
<g id="#303575ff">
<path fill="#303575" stroke="#303575" stroke-width="0.09375" opacity="1.00" d=" M 797.30 336.16 C 800.67 335.27 804.18 335.04 807.65 335.54 C 810.71 344.88 814.50 353.95 817.62 363.27 C 820.66 372.49 823.88 381.65 827.59 390.62 C 829.48 396.55 831.24 402.53 833.69 408.27 C 835.51 414.03 837.74 419.64 839.81 425.31 C 840.48 427.25 841.14 429.20 841.80 431.16 C 838.83 431.94 835.97 433.11 833.34 434.68 C 830.85 424.67 827.16 414.99 823.26 405.47 C 820.10 397.54 817.54 389.39 815.34 381.15 C 811.08 381.39 806.88 382.21 802.78 383.38 C 795.66 385.07 788.37 385.87 781.14 386.87 C 772.25 371.11 755.94 359.81 738.10 356.88 C 727.60 355.30 716.69 356.14 706.69 359.80 C 706.56 358.52 706.46 357.25 706.39 355.97 C 708.89 353.67 711.63 351.53 714.91 350.48 C 724.31 349.77 733.42 347.18 742.74 345.86 C 760.90 342.47 779.10 339.31 797.30 336.16 Z" />
</g>
<g id="#c85d67ff">
<path fill="#c85d67" stroke="#c85d67" stroke-width="0.09375" opacity="1.00" d=" M 459.52 349.28 C 461.38 349.44 462.16 347.34 463.36 346.28 C 461.88 352.58 461.59 359.20 459.27 365.28 C 456.98 368.56 452.71 369.56 449.27 371.23 C 437.12 376.52 424.46 380.53 412.09 385.20 C 406.97 387.78 402.02 392.63 395.80 390.83 C 391.61 389.64 387.26 389.85 383.16 391.29 C 385.98 405.60 388.08 420.05 391.02 434.34 C 392.58 434.10 394.14 433.85 395.71 433.61 C 396.29 427.55 396.58 421.42 398.50 415.59 C 399.39 411.74 401.37 407.78 400.32 403.78 C 400.03 402.71 399.74 401.65 399.44 400.60 C 403.85 400.06 408.30 399.55 412.75 399.89 C 427.12 400.41 441.51 402.19 455.88 400.87 C 464.77 400.29 473.86 399.44 482.12 395.88 C 486.97 393.77 490.51 389.56 493.05 385.04 C 498.08 376.08 501.29 366.27 504.31 356.49 C 508.61 361.54 511.30 367.66 514.66 373.32 C 529.10 398.28 545.58 422.00 563.14 444.85 C 566.19 448.58 568.53 453.80 573.78 454.72 C 577.64 455.63 578.80 459.58 579.49 462.98 C 576.10 466.37 576.29 471.22 576.87 475.63 C 591.51 475.60 606.14 475.68 620.78 475.60 C 620.73 473.86 620.68 472.12 620.65 470.40 C 610.50 469.12 601.82 463.56 592.40 460.08 C 591.72 460.83 591.04 461.57 590.35 462.31 C 588.75 458.56 587.22 454.79 585.79 450.98 C 586.86 450.57 587.94 450.17 589.02 449.77 C 584.91 436.08 579.56 422.80 574.69 409.36 C 568.02 391.59 561.03 373.93 553.66 356.44 C 557.12 356.38 560.58 356.52 564.01 356.96 C 593.58 360.44 623.28 363.15 652.59 368.43 C 655.90 368.96 659.22 369.41 662.53 369.91 C 662.24 379.34 661.32 388.76 662.21 398.20 C 663.85 397.12 665.48 396.05 667.13 394.99 C 667.45 398.05 667.64 401.13 667.34 404.20 C 665.05 417.25 665.90 431.16 671.80 443.19 C 679.33 459.32 693.99 472.02 711.20 476.75 C 718.24 479.01 725.71 478.90 733.01 478.60 C 746.62 477.90 759.62 471.73 769.59 462.58 C 781.25 452.00 788.49 436.73 789.40 421.02 C 789.70 412.46 788.52 403.79 785.49 395.75 C 790.27 396.80 794.88 398.45 799.43 400.23 C 798.36 405.52 797.17 410.78 795.89 416.02 C 795.11 419.00 795.14 422.12 795.85 425.11 C 796.34 427.09 796.39 429.18 795.48 431.07 C 792.95 435.11 792.24 439.84 793.13 444.51 C 804.53 444.72 815.89 445.67 827.27 446.22 C 828.70 450.02 829.81 454.26 832.99 457.03 C 837.73 461.52 845.80 462.03 850.95 457.94 C 853.67 455.85 855.29 452.73 857.41 450.09 C 857.81 449.98 858.60 449.76 858.99 449.65 C 856.57 458.50 850.69 465.93 844.54 472.55 C 838.77 478.96 831.26 483.34 824.31 488.30 C 815.97 494.40 806.58 498.84 797.34 503.37 C 788.18 507.61 779.25 512.47 769.64 515.66 C 720.01 535.37 667.83 547.79 615.42 557.47 C 596.40 561.20 577.10 563.09 557.94 565.85 C 532.17 568.80 506.31 571.02 480.41 572.47 C 468.95 573.50 457.42 572.48 445.97 573.70 C 432.65 574.20 419.31 573.78 405.98 573.86 C 378.14 572.23 350.22 570.43 322.79 565.16 C 310.94 562.89 298.90 561.36 287.34 557.79 C 277.96 555.41 268.63 552.81 259.53 549.52 C 246.06 545.34 232.84 540.24 220.33 533.70 C 211.51 529.91 203.30 524.92 195.18 519.83 C 177.11 508.50 160.32 493.93 150.06 474.95 C 142.70 461.60 138.76 445.64 142.49 430.57 C 144.26 421.04 149.21 412.51 154.62 404.61 C 158.78 399.17 162.80 393.50 168.13 389.11 C 171.89 385.97 175.69 382.87 179.31 379.56 C 179.66 379.59 180.37 379.65 180.72 379.69 C 178.93 391.47 177.66 403.35 174.89 414.96 C 172.30 425.49 170.43 436.18 167.51 446.63 C 166.70 448.93 166.98 451.37 167.82 453.62 C 167.73 456.58 166.90 459.44 165.55 462.07 C 162.70 466.75 163.41 472.34 164.29 477.47 C 179.93 477.58 195.58 477.75 211.21 477.37 C 211.69 475.57 212.18 473.77 212.68 471.98 C 201.65 469.91 191.10 465.99 181.22 460.71 C 182.49 458.28 183.80 455.86 185.17 453.49 C 187.26 452.57 188.96 450.93 189.75 448.77 C 200.52 422.68 208.99 395.72 217.23 368.76 C 217.78 369.82 218.33 370.89 218.84 371.98 C 220.98 379.22 222.21 386.67 223.99 393.99 C 225.95 402.60 228.56 411.05 230.35 419.70 C 232.03 427.97 234.67 436.07 235.45 444.50 C 235.86 447.33 234.54 449.96 233.52 452.51 C 231.64 456.82 230.50 461.98 232.45 466.46 C 234.18 468.44 237.30 467.72 239.68 468.06 C 239.90 471.03 238.19 476.15 242.17 477.09 C 252.73 478.54 263.59 476.09 274.08 478.16 C 277.23 479.28 280.69 479.03 283.93 478.42 C 297.60 478.67 311.29 478.84 324.97 478.64 C 324.78 477.68 324.59 476.72 324.40 475.77 C 314.46 472.92 304.92 468.87 295.84 463.94 C 295.36 463.19 294.88 462.44 294.40 461.70 C 297.57 454.83 301.11 448.13 304.16 441.20 C 307.05 442.52 309.20 444.96 309.80 448.14 C 309.74 449.44 309.61 450.74 309.42 452.04 C 308.50 456.85 306.16 462.05 308.13 466.87 C 311.63 469.04 316.07 468.27 320.01 468.45 C 330.68 468.06 341.37 468.79 352.02 468.20 C 355.15 468.43 355.34 464.93 356.04 462.74 C 344.71 459.99 332.65 457.22 323.74 449.19 L 323.71 448.27 C 325.42 443.67 327.49 439.04 327.26 434.02 C 327.10 424.35 327.42 414.67 326.89 405.01 C 326.75 401.66 326.69 398.29 326.97 394.94 C 332.32 384.09 337.78 373.28 341.65 361.78 C 342.46 363.49 343.24 365.22 343.93 367.00 C 352.22 396.26 360.41 425.56 368.95 454.75 C 369.61 457.09 370.21 459.46 370.53 461.89 C 369.81 467.50 369.33 473.16 369.59 478.83 C 379.38 477.78 389.19 478.93 399.00 478.71 C 405.88 478.62 412.78 478.96 419.65 478.40 C 417.34 474.52 412.63 473.93 408.76 472.50 C 400.93 469.97 393.62 466.15 386.58 461.95 C 385.65 448.51 383.36 435.22 381.86 421.84 C 378.78 397.19 375.50 372.56 372.46 347.91 C 392.31 347.89 412.17 347.88 432.02 348.05 C 441.17 348.68 450.34 349.18 459.52 349.28 Z" />
<path fill="#c85d67" stroke="#c85d67" stroke-width="0.09375" opacity="1.00" d=" M 284.38 362.20 C 284.86 361.36 285.35 360.52 285.86 359.70 C 288.63 369.09 290.12 378.79 292.74 388.22 C 294.54 395.34 297.17 402.41 297.00 409.86 C 292.97 420.31 289.17 430.85 285.31 441.37 C 282.57 448.51 280.55 455.99 276.47 462.53 C 269.76 460.19 263.05 457.82 256.24 455.81 C 256.18 454.62 256.12 453.44 256.07 452.26 C 256.73 452.19 258.05 452.06 258.71 452.00 C 258.73 445.84 259.07 439.69 259.75 433.57 C 264.04 425.07 266.80 415.94 270.02 407.01 C 275.25 392.22 279.81 377.20 284.38 362.20 Z" />
<path fill="#c85d67" stroke="#c85d67" stroke-width="0.09375" opacity="1.00" d=" M 749.23 393.19 C 755.94 391.32 762.89 390.59 769.78 389.71 C 772.68 394.58 774.96 399.79 776.58 405.23 C 770.14 407.04 763.45 407.54 756.93 408.93 C 749.70 410.47 742.39 411.58 735.10 412.77 C 739.79 406.25 743.82 399.14 749.23 393.19 Z" />
</g>
<g id="#ac4656ff">
<path fill="#ac4656" stroke="#ac4656" stroke-width="0.09375" opacity="1.00" d=" M 691.99 349.61 C 697.38 350.02 702.79 350.33 708.20 350.15 C 707.54 352.07 706.88 353.99 706.39 355.97 C 706.46 357.25 706.56 358.52 706.69 359.80 C 697.26 363.03 689.10 369.06 682.08 376.00 C 682.65 374.85 683.19 373.69 683.74 372.54 C 681.76 372.44 679.78 372.35 677.81 372.20 C 676.59 370.50 675.04 368.92 674.42 366.89 C 673.85 363.67 673.94 360.39 673.71 357.14 C 675.83 356.42 677.95 355.71 680.12 355.14 C 683.10 354.56 686.11 354.19 689.12 353.79 C 686.12 353.17 683.12 352.52 680.15 351.79 C 683.93 350.37 687.91 349.34 691.99 349.61 Z" />
</g>
<g id="#181847ff">
<path fill="#181847" stroke="#181847" stroke-width="0.09375" opacity="1.00" d=" M 706.69 359.80 C 716.69 356.14 727.60 355.30 738.10 356.88 C 755.94 359.81 772.25 371.11 781.14 386.87 C 782.76 389.74 784.26 392.69 785.49 395.75 C 788.52 403.79 789.70 412.46 789.40 421.02 C 788.49 436.73 781.25 452.00 769.59 462.58 C 759.62 471.73 746.62 477.90 733.01 478.60 C 725.71 478.90 718.24 479.01 711.20 476.75 C 693.99 472.02 679.33 459.32 671.80 443.19 C 665.90 431.16 665.05 417.25 667.34 404.20 C 669.95 393.78 675.21 384.21 682.08 376.00 C 689.10 369.06 697.26 363.03 706.69 359.80 M 723.09 367.37 C 722.27 377.92 726.82 387.92 727.42 398.39 C 728.25 401.95 728.95 405.54 729.72 409.12 C 733.03 404.60 736.25 400.00 739.10 395.17 C 744.11 388.55 748.94 381.78 753.49 374.83 C 744.80 368.55 733.58 366.86 723.09 367.37 M 708.37 370.97 C 700.88 374.70 693.84 379.53 688.52 386.06 C 693.94 390.39 699.80 394.13 705.44 398.17 C 711.29 402.05 716.98 406.17 722.88 409.99 C 722.65 406.18 722.00 402.42 721.13 398.72 C 718.82 388.90 717.85 378.84 715.73 368.99 C 713.26 369.60 710.80 370.26 708.37 370.97 M 749.23 393.19 C 743.82 399.14 739.79 406.25 735.10 412.77 C 742.39 411.58 749.70 410.47 756.93 408.93 C 763.45 407.54 770.14 407.04 776.58 405.23 C 774.96 399.79 772.68 394.58 769.78 389.71 C 766.62 385.79 763.94 380.96 759.11 378.89 C 754.89 382.93 752.24 388.25 749.23 393.19 M 677.58 422.54 C 688.37 422.27 698.82 419.16 709.42 417.41 C 712.54 416.91 715.64 416.21 718.67 415.29 C 707.45 407.36 696.28 399.35 684.77 391.84 C 678.86 400.89 676.93 411.89 677.58 422.54 M 755.01 415.94 C 748.67 416.89 742.36 417.99 736.07 419.14 C 741.29 423.27 747.01 426.70 752.42 430.56 C 758.60 434.77 764.59 439.28 770.96 443.21 C 776.75 433.96 778.61 422.89 777.65 412.13 C 769.99 412.68 762.60 414.91 755.01 415.94 M 709.81 424.01 C 699.71 426.46 689.26 427.07 679.20 429.71 C 680.25 435.52 683.06 440.81 686.34 445.65 C 689.23 449.71 692.20 453.94 696.63 456.45 C 705.12 445.34 712.07 433.12 720.95 422.30 C 717.18 422.45 713.46 423.11 709.81 424.01 M 702.19 460.24 C 711.17 466.45 722.51 468.35 733.22 467.24 C 732.32 458.15 729.84 449.32 728.63 440.27 C 727.96 435.42 727.18 430.58 726.02 425.82 C 718.08 437.29 709.87 448.58 702.19 460.24 M 733.21 425.59 C 733.37 434.20 735.84 442.50 737.31 450.93 C 738.17 455.92 738.91 460.93 739.67 465.94 C 745.68 465.29 751.01 462.20 755.99 458.99 C 760.28 456.20 764.08 452.66 767.00 448.44 C 755.55 441.10 744.84 432.64 733.21 425.59 Z" />
</g>
<g id="#1f28cfff">
<path fill="#1f28cf" stroke="#1f28cf" stroke-width="0.09375" opacity="1.00" d=" M 817.62 363.27 C 821.28 361.92 825.03 360.79 828.83 359.88 C 830.22 367.00 830.90 374.23 831.19 381.47 C 830.06 384.55 828.83 387.59 827.59 390.62 C 823.88 381.65 820.66 372.49 817.62 363.27 Z" />
</g>
<g id="#303676ff">
<path fill="#303676" stroke="#303676" stroke-width="0.09375" opacity="1.00" d=" M 723.09 367.37 C 733.58 366.86 744.80 368.55 753.49 374.83 C 748.94 381.78 744.11 388.55 739.10 395.17 C 735.00 395.29 730.64 395.52 727.42 398.39 C 726.82 387.92 722.27 377.92 723.09 367.37 Z" />
</g>
<g id="#2e3677ff">
<path fill="#2e3677" stroke="#2e3677" stroke-width="0.09375" opacity="1.00" d=" M 708.37 370.97 C 710.80 370.26 713.26 369.60 715.73 368.99 C 717.85 378.84 718.82 388.90 721.13 398.72 C 718.62 398.64 716.11 398.56 713.62 398.44 C 712.13 389.24 710.40 380.07 708.37 370.97 Z" />
</g>
<g id="#bd5864ff">
<path fill="#bd5864" stroke="#bd5864" stroke-width="0.09375" opacity="1.00" d=" M 662.53 369.91 C 667.62 370.68 672.68 371.70 677.81 372.20 C 679.78 372.35 681.76 372.44 683.74 372.54 C 683.19 373.69 682.65 374.85 682.08 376.00 C 675.21 384.21 669.95 393.78 667.34 404.20 C 667.64 401.13 667.45 398.05 667.13 394.99 C 665.48 396.05 663.85 397.12 662.21 398.20 C 661.32 388.76 662.24 379.34 662.53 369.91 Z" />
</g>
<g id="#ab5160ff">
<path fill="#ab5160" stroke="#ab5160" stroke-width="0.09375" opacity="1.00" d=" M 688.52 386.06 C 693.84 379.53 700.88 374.70 708.37 370.97 C 710.40 380.07 712.13 389.24 713.62 398.44 C 712.10 395.32 710.74 392.13 709.54 388.88 C 709.62 391.16 709.69 393.44 709.73 395.73 C 708.37 396.00 707.03 396.28 705.70 396.57 C 705.64 396.97 705.51 397.77 705.44 398.17 C 699.80 394.13 693.94 390.39 688.52 386.06 Z" />
</g>
<g id="#2e3777ff">
<path fill="#2e3777" stroke="#2e3777" stroke-width="0.09375" opacity="1.00" d=" M 749.23 393.19 C 752.24 388.25 754.89 382.93 759.11 378.89 C 763.94 380.96 766.62 385.79 769.78 389.71 C 762.89 390.59 755.94 391.32 749.23 393.19 Z" />
</g>
<g id="#cb4d56ff">
<path fill="#cb4d56" stroke="#cb4d56" stroke-width="0.09375" opacity="1.00" d=" M 827.59 390.62 C 828.83 387.59 830.06 384.55 831.19 381.47 C 832.51 390.35 833.28 399.31 833.69 408.27 C 831.24 402.53 829.48 396.55 827.59 390.62 Z" />
</g>
<g id="#c64d58ff">
<path fill="#c64d58" stroke="#c64d58" stroke-width="0.09375" opacity="1.00" d=" M 781.14 386.87 C 788.37 385.87 795.66 385.07 802.78 383.38 C 802.23 389.10 800.67 394.64 799.43 400.23 C 794.88 398.45 790.27 396.80 785.49 395.75 C 784.26 392.69 782.76 389.74 781.14 386.87 Z" />
</g>
<g id="#b28b67ff">
<path fill="#b28b67" stroke="#b28b67" stroke-width="0.09375" opacity="1.00" d=" M 395.80 390.83 C 402.02 392.63 406.97 387.78 412.09 385.20 C 410.98 385.81 409.91 386.47 408.83 387.13 C 409.68 391.50 410.81 395.85 412.75 399.89 C 408.30 399.55 403.85 400.06 399.44 400.60 C 399.74 401.65 400.03 402.71 400.32 403.78 C 398.76 402.20 396.69 400.95 395.80 398.84 C 395.16 396.21 395.62 393.48 395.80 390.83 Z" />
</g>
<g id="#cd5d67ff">
<path fill="#cd5d67" stroke="#cd5d67" stroke-width="0.09375" opacity="1.00" d=" M 709.54 388.88 C 710.74 392.13 712.10 395.32 713.62 398.44 C 716.11 398.56 718.62 398.64 721.13 398.72 C 722.00 402.42 722.65 406.18 722.88 409.99 C 716.98 406.17 711.29 402.05 705.44 398.17 C 705.51 397.77 705.64 396.97 705.70 396.57 C 707.03 396.28 708.37 396.00 709.73 395.73 C 709.69 393.44 709.62 391.16 709.54 388.88 Z" />
</g>
<g id="#e4e5e6ff">
<path fill="#e4e5e6" stroke="#e4e5e6" stroke-width="0.09375" opacity="1.00" d=" M 383.16 391.29 C 387.26 389.85 391.61 389.64 395.80 390.83 C 395.62 393.48 395.16 396.21 395.80 398.84 C 396.69 400.95 398.76 402.20 400.32 403.78 C 401.37 407.78 399.39 411.74 398.50 415.59 C 396.58 421.42 396.29 427.55 395.71 433.61 C 394.14 433.85 392.58 434.10 391.02 434.34 C 388.08 420.05 385.98 405.60 383.16 391.29 Z" />
</g>
<g id="#be5865ff">
<path fill="#be5865" stroke="#be5865" stroke-width="0.09375" opacity="1.00" d=" M 677.58 422.54 C 676.93 411.89 678.86 400.89 684.77 391.84 C 696.28 399.35 707.45 407.36 718.67 415.29 C 715.64 416.21 712.54 416.91 709.42 417.41 C 698.82 419.16 688.37 422.27 677.58 422.54 Z" />
</g>
<g id="#4f4f50ff">
<path fill="#4f4f50" stroke="#4f4f50" stroke-width="0.09375" opacity="1.00" d=" M 304.16 441.20 C 312.13 425.97 319.46 410.41 326.97 394.94 C 326.69 398.29 326.75 401.66 326.89 405.01 C 327.42 414.67 327.10 424.35 327.26 434.02 C 327.49 439.04 325.42 443.67 323.71 448.27 C 323.50 446.59 323.21 444.94 322.95 443.28 C 318.63 443.15 314.31 443.12 309.99 443.19 C 309.93 444.84 309.88 446.49 309.80 448.14 C 309.20 444.96 307.05 442.52 304.16 441.20 Z" />
</g>
<g id="#cd5d68ff">
<path fill="#cd5d68" stroke="#cd5d68" stroke-width="0.09375" opacity="1.00" d=" M 727.42 398.39 C 730.64 395.52 735.00 395.29 739.10 395.17 C 736.25 400.00 733.03 404.60 729.72 409.12 C 728.95 405.54 728.25 401.95 727.42 398.39 Z" />
</g>
<g id="#ca5d65ff">
<path fill="#ca5d65" stroke="#ca5d65" stroke-width="0.09375" opacity="1.00" d=" M 823.26 405.47 C 827.16 414.99 830.85 424.67 833.34 434.68 C 832.31 435.83 831.36 437.04 830.48 438.31 C 823.10 436.37 816.77 431.97 809.92 428.79 C 810.21 428.44 810.78 427.75 811.07 427.41 C 812.70 427.71 814.34 428.05 815.98 428.39 C 817.77 420.57 820.19 412.88 823.26 405.47 Z" />
</g>
<g id="#c95d67ff">
<path fill="#c95d67" stroke="#c95d67" stroke-width="0.09375" opacity="1.00" d=" M 755.01 415.94 C 762.60 414.91 769.99 412.68 777.65 412.13 C 778.61 422.89 776.75 433.96 770.96 443.21 C 764.59 439.28 758.60 434.77 752.42 430.56 C 747.01 426.70 741.29 423.27 736.07 419.14 C 742.36 417.99 748.67 416.89 755.01 415.94 Z" />
<path fill="#c95d67" stroke="#c95d67" stroke-width="0.09375" opacity="1.00" d=" M 702.19 460.24 C 709.87 448.58 718.08 437.29 726.02 425.82 C 727.18 430.58 727.96 435.42 728.63 440.27 C 729.84 449.32 732.32 458.15 733.22 467.24 C 722.51 468.35 711.17 466.45 702.19 460.24 Z" />
<path fill="#c95d67" stroke="#c95d67" stroke-width="0.09375" opacity="1.00" d=" M 733.21 425.59 C 744.84 432.64 755.55 441.10 767.00 448.44 C 764.08 452.66 760.28 456.20 755.99 458.99 C 751.01 462.20 745.68 465.29 739.67 465.94 C 738.91 460.93 738.17 455.92 737.31 450.93 C 735.84 442.50 733.37 434.20 733.21 425.59 Z" />
</g>
<g id="#c85c67ff">
<path fill="#c85c67" stroke="#c85c67" stroke-width="0.09375" opacity="1.00" d=" M 709.81 424.01 C 713.46 423.11 717.18 422.45 720.95 422.30 C 712.07 433.12 705.12 445.34 696.63 456.45 C 692.20 453.94 689.23 449.71 686.34 445.65 C 683.06 440.81 680.25 435.52 679.20 429.71 C 689.26 427.07 699.71 426.46 709.81 424.01 Z" />
</g>
<g id="#b98f64ff">
<path fill="#b98f64" stroke="#b98f64" stroke-width="0.09375" opacity="1.00" d=" M 839.81 425.31 C 844.86 424.47 849.98 424.08 855.05 423.31 L 854.59 424.29 C 853.38 426.67 852.21 429.51 849.56 430.60 C 847.07 431.48 844.38 431.14 841.80 431.16 C 841.14 429.20 840.48 427.25 839.81 425.31 Z" />
</g>
<g id="#b58d67ff">
<path fill="#b58d67" stroke="#b58d67" stroke-width="0.09375" opacity="1.00" d=" M 795.85 425.11 C 800.97 425.55 806.02 426.46 811.07 427.41 C 810.78 427.75 810.21 428.44 809.92 428.79 C 808.26 430.62 806.59 432.87 803.98 433.29 C 800.96 433.69 798.17 432.16 795.48 431.07 C 796.39 429.18 796.34 427.09 795.85 425.11 Z" />
</g>
<g id="#3d4a73ff">
<path fill="#3d4a73" stroke="#3d4a73" stroke-width="0.09375" opacity="1.00" d=" M 849.56 430.60 C 852.21 429.51 853.38 426.67 854.59 424.29 C 859.89 425.63 865.21 426.89 870.45 428.48 C 875.44 430.02 880.72 429.62 885.86 430.21 C 886.20 431.98 886.55 433.75 886.87 435.53 C 876.97 437.35 867.05 439.12 857.18 441.06 C 857.15 441.83 857.09 443.37 857.06 444.14 C 856.13 441.01 854.92 437.79 852.50 435.50 C 849.65 432.72 845.62 431.72 841.80 431.16 C 844.38 431.14 847.07 431.48 849.56 430.60 Z" />
</g>
<g id="#3e4a72ff">
<path fill="#3e4a72" stroke="#3e4a72" stroke-width="0.09375" opacity="1.00" d=" M 803.98 433.29 C 806.59 432.87 808.26 430.62 809.92 428.79 C 816.77 431.97 823.10 436.37 830.48 438.31 C 829.21 440.86 828.27 443.55 827.27 446.22 C 815.89 445.67 804.53 444.72 793.13 444.51 C 792.24 439.84 792.95 435.11 795.48 431.07 C 798.17 432.16 800.96 433.69 803.98 433.29 Z" />
</g>
<g id="#2b3678ff">
<path fill="#2b3678" stroke="#2b3678" stroke-width="0.09375" opacity="1.00" d=" M 877.59 440.65 C 880.47 440.12 883.40 440.43 886.23 441.12 C 885.24 442.68 884.59 444.91 882.52 445.34 C 874.78 447.27 866.77 447.88 858.99 449.65 C 858.60 449.76 857.81 449.98 857.41 450.09 C 857.30 448.10 857.24 446.11 857.06 444.14 C 863.88 442.85 870.74 441.76 877.59 440.65 Z" />
</g>
<g id="#373838ff">
<path fill="#373838" stroke="#373838" stroke-width="0.09375" opacity="1.00" d=" M 309.99 443.19 C 314.31 443.12 318.63 443.15 322.95 443.28 C 323.21 444.94 323.50 446.59 323.71 448.27 L 323.74 449.19 C 323.77 449.87 323.83 451.24 323.86 451.92 C 319.16 453.39 314.03 454.40 309.42 452.04 C 309.61 450.74 309.74 449.44 309.80 448.14 C 309.88 446.49 309.93 444.84 309.99 443.19 Z" />
</g>
<g id="#6a6a6aff">
<path fill="#6a6a6a" stroke="#6a6a6a" stroke-width="0.09375" opacity="1.00" d=" M 323.74 449.19 C 332.65 457.22 344.71 459.99 356.04 462.74 C 355.34 464.93 355.15 468.43 352.02 468.20 C 341.37 468.79 330.68 468.06 320.01 468.45 C 316.07 468.27 311.63 469.04 308.13 466.87 C 306.16 462.05 308.50 456.85 309.42 452.04 C 314.03 454.40 319.16 453.39 323.86 451.92 C 323.83 451.24 323.77 449.87 323.74 449.19 Z" />
</g>
<g id="#987659ff">
<path fill="#987659" stroke="#987659" stroke-width="0.09375" opacity="1.00" d=" M 573.78 454.72 C 577.80 453.55 581.83 452.37 585.79 450.98 C 587.22 454.79 588.75 458.56 590.35 462.31 C 587.54 465.71 582.84 465.29 579.49 462.98 C 578.80 459.58 577.64 455.63 573.78 454.72 Z" />
</g>
<g id="#696b69ff">
<path fill="#696b69" stroke="#696b69" stroke-width="0.09375" opacity="1.00" d=" M 232.45 466.46 C 230.50 461.98 231.64 456.82 233.52 452.51 C 236.07 453.29 238.76 453.39 241.38 452.85 C 241.48 455.77 241.63 458.70 241.34 461.62 C 240.81 463.77 240.18 465.90 239.68 468.06 C 237.30 467.72 234.18 468.44 232.45 466.46 Z" />
</g>
<g id="#cccccdff">
<path fill="#cccccd" stroke="#cccccd" stroke-width="0.09375" opacity="1.00" d=" M 167.82 453.62 C 173.60 453.12 179.39 453.37 185.17 453.49 C 183.80 455.86 182.49 458.28 181.22 460.71 C 176.14 462.19 170.81 463.05 165.55 462.07 C 166.90 459.44 167.73 456.58 167.82 453.62 Z" />
</g>
<g id="#686c6cff">
<path fill="#686c6c" stroke="#686c6c" stroke-width="0.09375" opacity="1.00" d=" M 256.24 455.81 C 263.05 457.82 269.76 460.19 276.47 462.53 C 275.78 464.65 275.46 466.86 275.16 469.06 C 268.88 466.36 262.97 462.84 256.47 460.69 C 256.38 459.06 256.31 457.43 256.24 455.81 Z" />
</g>
<g id="#464646ff">
<path fill="#464646" stroke="#464646" stroke-width="0.09375" opacity="1.00" d=" M 256.47 460.69 C 262.97 462.84 268.88 466.36 275.16 469.06 C 274.78 472.09 274.59 475.14 274.08 478.16 C 263.59 476.09 252.73 478.54 242.17 477.09 C 238.19 476.15 239.90 471.03 239.68 468.06 C 240.18 465.90 240.81 463.77 241.34 461.62 C 246.33 463.26 251.63 462.46 256.47 460.69 Z" />
<path fill="#464646" stroke="#464646" stroke-width="0.09375" opacity="1.00" d=" M 165.55 462.07 C 170.81 463.05 176.14 462.19 181.22 460.71 C 191.10 465.99 201.65 469.91 212.68 471.98 C 212.18 473.77 211.69 475.57 211.21 477.37 C 195.58 477.75 179.93 477.58 164.29 477.47 C 163.41 472.34 162.70 466.75 165.55 462.07 Z" />
</g>
<g id="#e5e5e5ff">
<path fill="#e5e5e5" stroke="#e5e5e5" stroke-width="0.09375" opacity="1.00" d=" M 590.35 462.31 C 591.04 461.57 591.72 460.83 592.40 460.08 C 601.82 463.56 610.50 469.12 620.65 470.40 C 620.68 472.12 620.73 473.86 620.78 475.60 C 606.14 475.68 591.51 475.60 576.87 475.63 C 576.29 471.22 576.10 466.37 579.49 462.98 C 582.84 465.29 587.54 465.71 590.35 462.31 Z" />
</g>
<g id="#000001ff">
<path fill="#000001" stroke="#000001" stroke-width="0.09375" opacity="1.00" d=" M 369.59 478.83 C 369.33 473.16 369.81 467.50 370.53 461.89 C 375.87 462.27 381.23 462.27 386.58 461.95 C 393.62 466.15 400.93 469.97 408.76 472.50 C 412.63 473.93 417.34 474.52 419.65 478.40 C 412.78 478.96 405.88 478.62 399.00 478.71 C 389.19 478.93 379.38 477.78 369.59 478.83 Z" />
</g>
</svg>
